<?xml version="1.0" encoding="UTF-8"?>
<svg xmlns="http://www.w3.org/2000/svg" viewBox="0 0 510.7 236.5">
  <g id="Layer_2" class="image" data-name="Layer 2">
    <polygon points="0 220.9 2.2 220.9 0 218.7 0 220.9" fill="#bdd630" stroke-width="0"/>
    <path d="m105.5,156l-21.5-21.5-4.5-4.5-15.5-15.5H0v104.1l2.2,2.2h68.1l9.2-9.2,4.5-4.5,21.5-21.5c8.2-8.2,8.2-21.5,0-29.7Z" fill="#e72130" stroke-width="0"/>
    <g>
      <path d="m43.3,212.6c-.8,0-1.4,0-2,0-.5,0-1,0-1.4-.2-.8-.3-1.4-.7-1.9-1.4-.5-.7-.7-1.6-.7-2.4,0-.3,0-.5,0-.8,0-.3,0-.4-.4-.4-.7,0-1.3,0-2,0-.4,0-.9-.6-.9-1,0-1.8,0-3.5,0-5.3,0-.4,0-.4-.5-.4-.6,0-1.5-.4-1.5-1.1,0-.1,0-.3,0-.4,0-.6,0-1.1,0-1.7,0-.8,0-1.7,0-2.5,0-.6-.2-1.3-.2-1.9,0-.3,0-.6,0-.8,0-.6-.1-1.2-.2-1.8,0-.8-.2-1.5-.3-2.2,0,0,0-.2,0-.3-.2-.7-.3-1.4-.5-2-.1-.7-.3-1.3-.5-2,0-.2-.2-.4-.2-.6-.1-.7-.4-1.3-.7-1.9-.3-.7-.5-1.4-.9-2-.2-.4-.5-.8-.7-1.2-.2-.4-.4-.8-.7-1.2-.5-.8-1.1-1.6-1.7-2.4-.3-.4-.5-.7-.8-1.1-.4-.5-.7-1.1-1.1-1.6-.3-.5-.7-1.1-.9-1.6-.3-.5-.5-1-.7-1.6-.2-.4-.3-.9-.4-1.4-.2-.6-.3-1.2-.4-1.8-.2-.5-.2-1.1-.2-1.6,0-1.1,0-2.2,0-3.4,0-1.3.2-2.5.4-3.7.1-.5.2-1.1.4-1.6.2-.6.4-1.1.6-1.7.1-.3.2-.6.3-1,.2-.4.4-.8.6-1.2.1-.2.3-.5.4-.7.3-.5.7-1.1,1-1.6.3-.4.5-.8.8-1.2.3-.5.7-.9,1.1-1.3.7-.7,1.4-1.4,2.1-2,.7-.6,1.4-1.2,2.2-1.7.7-.5,1.5-.9,2.3-1.3.6-.3,1.2-.6,1.8-.9.4-.2.8-.3,1.3-.4.5-.1.9-.3,1.4-.4.7-.2,1.5-.4,2.2-.5.3,0,.6,0,.9,0,1,0,2.1-.2,3.1-.2.7,0,1.4.2,2.2.2.7,0,1.3.3,2,.3.5,0,.9.2,1.4.4,1.1.3,2.2.7,3.2,1.2.5.3,1.1.5,1.6.8,1.1.6,2.2,1.3,3.1,2.2.7.6,1.4,1.2,2.1,1.9.9.9,1.7,1.9,2.4,3,.4.6.8,1.2,1.1,1.8.3.6.6,1.3.8,1.9.2.4.4.7.5,1.1.2.5.4,1,.5,1.5.3,1.1.5,2.3.7,3.4.1,1.1,0,2.2,0,3.3,0,.7,0,1.5,0,2.2,0,.6-.2,1.1-.3,1.6-.1.6-.2,1.1-.4,1.7-.2.5-.4,1-.6,1.5-.1.3-.3.6-.4.9-.2.3-.3.6-.5,1-.2.4-.4.7-.6,1.1-.2.4-.5.7-.8,1.1-.6.8-1.2,1.6-1.8,2.4-.5.7-.9,1.3-1.4,2-.4.7-.9,1.5-1.2,2.3-.4,1-.8,1.9-1.2,2.9-.3.7-.4,1.5-.6,2.3-.2.6-.3,1.2-.4,1.8-.1.8-.3,1.5-.4,2.3,0,.8-.2,1.5-.3,2.3,0,.3,0,.6,0,.9,0,.9-.2,1.8-.2,2.8,0,0,0,.2,0,.2,0,1.3,0,2.7,0,4,0,.7-.9,1.5-1.6,1.3-.3,0-.4,0-.4.3,0,1.8,0,3.5,0,5.3,0,.5-.6,1.1-1,1.1-.6,0-1.2,0-1.8,0-.4,0-.4,0-.4.5,0,.5,0,1.1,0,1.6-.1.7-.4,1.4-.9,1.9-.5.5-1,.9-1.7,1.1-1,.3-2.1,0-2.9.2Zm0-14.4c2.7,0,5.4,0,8.1,0,0,0,.2,0,.2,0,0,0,.2-.1.2-.2,0-.2,0-.4,0-.5,0-.8,0-1.5,0-2.3,0-.8,0-1.5,0-2.3,0,0,0,0,0-.1.2-.7.2-1.4.2-2.1,0-.2,0-.4,0-.5.3-.7.2-1.6.4-2.3.2-.6.2-1.3.4-1.9.2-.6.1-1.2.4-1.7,0,0,0,0,0-.1.2-.7.4-1.4.6-2.1.1-.4.3-.9.5-1.3.2-.6.5-1.2.7-1.8.3-.6.6-1.2.9-1.7,0-.1.2-.3.2-.4.3-.5.6-1,.9-1.5.3-.5.7-1,1-1.4.4-.6.8-1.1,1.2-1.7.5-.8,1-1.5,1.5-2.3.5-.8.9-1.7,1.1-2.6.2-.8.5-1.6.6-2.4.1-.9.2-1.8.2-2.7,0-.8,0-1.7,0-2.5,0-.2,0-.4,0-.6,0-.4-.2-.8-.2-1.3,0-.6-.2-1.2-.4-1.8-.3-.9-.6-1.8-.9-2.6-.2-.6-.6-1.2-.9-1.7-.2-.4-.5-.8-.8-1.2-.3-.5-.6-1-1-1.4-.3-.4-.7-.9-1.1-1.3-.7-.7-1.3-1.3-2-1.9-.6-.5-1.3-1-2-1.4-.7-.4-1.4-.8-2.1-1.2-.7-.3-1.4-.6-2.2-.8-.4-.2-.9-.3-1.4-.4-.6-.1-1.2-.3-1.8-.4-.5,0-1-.2-1.5-.2-1,0-2,0-3.1,0-.3,0-.7,0-1,0-1.1.2-2.1.5-3.2.7-.4.1-.8.3-1.2.4-.6.2-1.1.5-1.7.8-.9.5-1.7.9-2.5,1.5-.9.6-1.8,1.3-2.5,2-.7.7-1.4,1.5-2.1,2.3-.9,1.1-1.6,2.3-2.3,3.6-.4.8-.7,1.7-1,2.5-.1.4-.2.8-.3,1.2,0,.2-.1.3-.2.5,0,.3-.1.7-.2,1,0,.9-.2,1.9-.2,2.8,0,.8,0,1.6.1,2.3,0,.6,0,1.2.2,1.8,0,0,0,0,0,.1,0,.9.3,1.6.6,2.4.2.5.4,1,.6,1.4.2.4.4.8.6,1.1.4.6.8,1.2,1.2,1.7.4.6.9,1.2,1.3,1.8.5.7,1,1.4,1.4,2.1.3.4.5.9.8,1.3.3.6.6,1.1.9,1.7.2.4.3.7.5,1.1.2.5.4.9.5,1.4.2.5.3.9.5,1.4.2.6.4,1.2.5,1.7,0,.3.2.7.2,1.1,0,.3,0,.5.1.8.1.7.3,1.3.4,2,0,.5.2,1,.2,1.5,0,.3,0,.6,0,1,0,.6.2,1.2.2,1.8,0,.8,0,1.7.1,2.6,0,.8,0,1.6,0,2.4,0,.6,0,.6.6.6,0,0,.1,0,.2,0h8.1Zm-.2,6.8h6.2c.5,0,.5,0,.5-.5,0-1.1,0-2.3,0-3.4,0-.4-.2-.5-.5-.5-.4,0-.8,0-1.1,0-3.6,0-7.3,0-10.9,0-.2,0-.3,0-.5,0-.3,0-.5,0-.5.4,0,1.2,0,2.4,0,3.5,0,.5,0,.5.5.5,2.1,0,4.1,0,6.2,0Zm0,2.3c-1,0-2.1,0-3.1,0-.2,0-.3,0-.3.3,0,.5,0,.9,0,1.4,0,.5.6,1.2,1.2,1.2,1.5,0,2.9,0,4.4,0,0,0,.2,0,.3,0,.5-.3,1-.8.9-1.5,0-.3,0-.6,0-.9,0-.3,0-.4-.3-.4-1,0-2,0-3,0Z" fill="#fff" stroke-width="0"/>
      <path d="m62.2,129c0,.2-.2.5-.3.8-.4.7-.8,1.4-1.2,2.1-.3.5-.5.9-.8,1.4-.3.5-.6,1.1-.9,1.7-.3.4-.5.9-.8,1.3-.1.2-.3.5-.4.7-.2.2-.3.5-.5.7-.2.2-1,.2-1.2,0-.1-.1-.3-.2-.4-.4-.3-.4-.3-.8,0-1.2.5-.8,1-1.6,1.4-2.4.3-.4.5-.9.8-1.3.4-.7.8-1.4,1.2-2.1.3-.5.6-1,.8-1.6.3-.7,1-1.1,1.8-.8.3.1.7.7.7,1.3Z" fill="#fff" stroke-width="0"/>
      <path d="m11,141.9c0-.5.2-.9.7-1.1.4-.2.9,0,1.3.1.4.2.8.5,1.2.7.8.5,1.6,1,2.4,1.4.8.4,1.6.9,2.3,1.3.6.3,1.1.6,1.7,1,.7.5.6,1.5,0,1.9-.5.3-1,.2-1.4,0-.8-.5-1.5-.9-2.3-1.4-.9-.5-1.9-1.1-2.8-1.6-.6-.3-1.1-.6-1.7-1-.3-.2-.6-.3-.9-.6-.3-.2-.5-.5-.4-.9Z" fill="#fff" stroke-width="0"/>
      <path d="m25.2,127.7c.5,0,.9.2,1.1.6.3.6.6,1.2,1,1.8.5.9,1.1,1.7,1.6,2.6.4.7.8,1.4,1.1,2,.2.3.4.7.6,1,.3.5.4,1,0,1.5-.1.2-.8.5-1,.5-.6,0-.8-.4-1.1-.8-.3-.5-.6-1-.9-1.5-.5-.8-.9-1.6-1.4-2.3-.4-.6-.8-1.3-1.1-1.9-.4-.7-.7-1.3-1.1-2-.1-.3-.1-.6,0-.8,0,0,.1-.2.2-.3.2-.3.5-.4.8-.4Z" fill="#fff" stroke-width="0"/>
      <path d="m74,140.7c.7,0,1.2.6,1.2,1.2,0,.3-.2.9-.6,1.1-.3.2-.7.4-1,.6-.4.2-.7.4-1.1.6-.5.3-1.1.6-1.6.9-.5.3-1,.6-1.4.8-.4.2-.7.4-1.1.6-.6.3-1.1.6-1.7.9-.4.2-1,0-1.3-.3-.4-.5-.3-1.2,0-1.4.3-.3.6-.5,1-.7.5-.3,1-.6,1.5-.8.6-.3,1.1-.6,1.7-.9.5-.3.9-.6,1.4-.9.3-.2.7-.4,1-.6.5-.3,1-.6,1.5-.9.2,0,.4-.1.6-.2Z" fill="#fff" stroke-width="0"/>
      <path d="m44.3,128.5c0,1.5,0,3,0,4.4,0,.6-.3.9-.8,1.2-.7.3-1.5-.5-1.5-1.1,0-1.5,0-3.1,0-4.6s0-3,0-4.5c0-.5.6-1.2,1.1-1.1.6,0,1.2.6,1.2,1.3,0,1.5,0,3,0,4.5Z" fill="#fff" stroke-width="0"/>
      <path d="m11.8,160.9c-1.5,0-2.9,0-4.4,0-.7,0-1.2-.5-1.2-1.2,0-.5.6-1.1,1.1-1.1,1,0,1.9,0,2.9,0,.8,0,1.7,0,2.5,0,.8,0,1.7,0,2.5,0,.4,0,.8,0,1.2,0,.5,0,.8.2,1,.6.2.3.2.7,0,1-.3.5-.7.7-1.2.7-1.5,0-2.9,0-4.4,0Z" fill="#fff" stroke-width="0"/>
      <path d="m74.3,160.9c-1.5,0-2.9,0-4.4,0-.5,0-.9-.3-1.1-.7-.2-.4,0-.8.2-1.2.4-.5.9-.4,1.4-.4.9,0,1.8,0,2.7,0,1,0,2,0,3,0,.9,0,1.7,0,2.6,0,.7,0,1.2.4,1.4,1.1,0,0,0,.1,0,.2-.2.7-.7,1.1-1.4,1.1-1.5,0-3,0-4.4,0Z" fill="#fff" stroke-width="0"/>
      <path d="m43.1,147.2c.6,0,1.3,0,1.9,0,.7,0,1.1.5,1.1,1.1,0,.5,0,1.1,0,1.6,0,.2,0,.3.3.4,1,.2,2,.7,2.9,1.1.2,0,.3.1.5.3.2.2.3,0,.4,0,.3-.4.7-.8,1.1-1.1.5-.5,1.3-.6,1.8,0,.9.9,1.8,1.7,2.6,2.6.2.2.3.5.4.8.1.4-.2.7-.4,1-.4.4-.7.7-1.1,1.1-.1.1-.2.3,0,.4.2.3.4.7.6,1,.2.4.4.9.5,1.3.1.4.2.8.3,1.1,0,0,.2.1.3.1.6,0,1.2,0,1.8,0,.6,0,1.2.6,1.2,1.2,0,1.3,0,2.5,0,3.8,0,.4-.2.8-.6,1-.4.2-.7.2-1.2.2-.4,0-.8,0-1.1,0-.2,0-.3,0-.3.3,0,.2-.1.3-.2.5,0,.2-.1.4-.2.6-.3.7-.7,1.4-1,2.1,0,.2,0,.3,0,.5.4.4.8.7,1.2,1.1.5.5.5,1.2,0,1.7-.9.9-1.7,1.7-2.6,2.6-.7.7-1.3.6-2,0-.3-.4-.7-.7-1.1-1.1,0,0-.2,0-.3,0-.6.3-1.2.6-1.8.9-.3.1-.7.2-1,.4-.2,0-.5.1-.7.2,0,0-.2.2-.2.3,0,.5,0,1.1,0,1.6,0,.7-.6,1.2-1.2,1.2-1.2,0-2.5,0-3.7,0-.8,0-1.2-.5-1.2-1.3,0-.5,0-1.1,0-1.6,0-.2,0-.3-.2-.3-.5-.1-.9-.3-1.4-.4-.5-.2-1.1-.5-1.6-.7-.1,0-.3-.2-.4-.2-.2-.1-.5,0-.7.3-.3.4-.7.7-1,1-.5.4-1.2.3-1.6-.1-.5-.6-1.1-1.1-1.7-1.6-.4-.4-.7-.7-1-1.1-.5-.7-.4-.9.1-1.6.3-.4.7-.8,1.1-1.1.2-.2.2-.4,0-.6-.1-.2-.2-.4-.3-.6,0-.2-.2-.4-.3-.6-.2-.5-.4-1.1-.6-1.6,0,0,0-.2,0-.3,0-.3,0-.4-.4-.4-.5,0-1.1,0-1.6,0-.5,0-.8-.3-1.1-.6-.2-.3-.3-.6-.2-.9,0-1.2,0-2.3,0-3.5,0-.6.6-1.2,1.2-1.2.6,0,1.1,0,1.7,0,.2,0,.3,0,.4-.3,0-.4.2-.8.3-1.1.1-.4.3-.8.4-1.1.2-.4.4-.7.6-1.1,0-.1.1-.3,0-.4-.4-.4-.8-.8-1.2-1.2-.2-.2-.4-.5-.5-.8-.1-.4.2-.7.4-.9.5-.6,1-1.1,1.5-1.6.4-.4.9-.8,1.3-1.3.3-.3,1-.3,1.3,0,.3.2.5.5.8.8.2.2.4.4.6.6,0,0,.2,0,.3,0,.5-.2,1-.5,1.5-.7.6-.3,1.2-.5,1.9-.6.3,0,.3-.2.3-.4,0-.5,0-1.1,0-1.6,0-.7.5-1.2,1.2-1.2.6,0,1.3,0,1.9,0Zm-9.2,5.8c-.3.3-.6.6-.9.9,0,0,0,.2,0,.2.4.4.7.7,1.1,1.1s.4,1,.2,1.4c-.3.4-.6.8-.8,1.2-.3.5-.6,1.1-.8,1.7-.2.6-.4,1.3-.5,1.9-.1.5-.5.9-1.1.9-.5,0-1,0-1.4,0-.3,0-.3.1-.3.4,0,.3,0,.5,0,.8,0,.2.1.3.3.3.5,0,.9,0,1.4,0,.6,0,1,.4,1.2.9.2.8.3,1.7.7,2.5.1.3.2.6.4.9.3.6.7,1.1,1,1.7.2.4.3.8,0,1.1-.4.4-.8.8-1.2,1.2-.2.1-.2.3,0,.4.3.3.5.6.8.9.4-.4.8-.8,1.2-1.1.4-.4,1.1-.6,1.5-.3.3.2.5.4.8.5.4.2.7.4,1.1.6.4.2.8.3,1.1.4.5.1,1,.2,1.4.4.5.1,1,.2,1.2.8.3.6.1,1.3.1,1.9,0,.3,0,.3.3.3.3,0,.6,0,.9,0,.2,0,.2,0,.2-.2,0-.4,0-.9,0-1.3,0-.6.4-1.2,1-1.3.5-.1.9-.1,1.4-.3.6-.2,1.2-.3,1.7-.6.6-.3,1.1-.6,1.7-1,.5-.3,1.1-.3,1.5,0,.2.2.4.4.6.6.2.2.4.4.6.6.3-.3.6-.5.9-.8,0,0,0-.3,0-.4-.4-.4-.8-.7-1.1-1.1-.3-.3-.4-.9-.1-1.3.2-.3.5-.7.6-1,.3-.6.6-1.2.9-1.8.2-.6.4-1.2.5-1.9,0-.5.6-1.1,1.1-1.1.5,0,1,0,1.5,0,.2,0,.3,0,.3-.3,0-.2,0-.5,0-.7,0-.4,0-.5-.4-.5-.6,0-1.1,0-1.7,0-.4,0-.7-.4-.7-.8,0-.5-.2-.9-.3-1.4-.2-.5-.4-1.1-.6-1.6-.3-.6-.6-1.2-.9-1.7-.4-.6-.4-1.2,0-1.6.4-.4.8-.8,1.2-1.2.1-.1.2-.2,0-.3-.2-.2-.5-.5-.7-.7-.1-.2-.3-.2-.4,0-.4.4-.8.7-1.1,1.1-.3.3-.8.4-1.1.2-.5-.3-1.1-.7-1.6-.9-.5-.3-1-.5-1.5-.7-.6-.2-1.2-.4-1.9-.5-.5-.1-1-.7-1-1.2,0-.5,0-1,0-1.4,0-.2,0-.3-.3-.3-.2,0-.5,0-.7,0-.3,0-.4,0-.4.4,0,.5,0,.9,0,1.4,0,.6-.5,1.1-.9,1.1-.8.1-1.6.4-2.3.6-.9.3-1.7.8-2.5,1.3-.2.1-.4.2-.6.3-.5,0-.7-.3-1-.6-.4-.3-.7-.7-1.1-1Z" fill="#fff" stroke-width="0"/>
      <path d="m43.1,187.8c-2.2,0-4.4,0-6.6,0-.8,0-1.3-.8-1.1-1.5.2-.6.6-.8,1.2-.8,1.4,0,2.8,0,4.2,0,1.5,0,3,0,4.4,0,1,0,1.9,0,2.9,0,.6,0,1.3,0,1.9.2.5,0,.6.5.7.9.1.4-.1.8-.4,1.1-.2.2-.5.3-.8.3-2.2,0-4.3,0-6.5,0Z" fill="#fff" stroke-width="0"/>
      <path d="m51.7,163.1c0,.7,0,1.4-.2,2.1-.1.5-.4,1-.6,1.5-.5,1.1-1.2,2-2.1,2.8-.6.5-1.2,1-2,1.3-.6.3-1.1.5-1.7.6-.4,0-.8.1-1.2.2-.8.1-1.6,0-2.3-.1-.8-.1-1.6-.4-2.3-.8-1-.5-1.8-1.2-2.6-2-.5-.6-.9-1.2-1.2-1.8-.2-.6-.5-1.1-.7-1.7,0-.2,0-.4,0-.7,0-.9,0-1.7,0-2.6,0-.5.2-1,.4-1.5.2-.6.6-1.2.9-1.8.4-.7.9-1.3,1.5-1.8.4-.4.9-.7,1.3-.9.5-.3,1.1-.6,1.7-.8.3-.1.7-.1,1.1-.3.7-.2,1.4-.2,2.2-.2.3,0,.5,0,.7.1.5.1,1,.2,1.4.4,1.2.4,2.3,1.1,3.3,2.1.7.7,1.2,1.5,1.6,2.3.2.3.2.7.4,1.1.1.3.2.7.3,1,0,.5.1,1,.2,1.5Zm-2.4.1c0-3.4-2.8-6.1-5.9-6.2-3.6-.1-6.4,2.8-6.4,6.2,0,3.5,2.8,6.1,6.1,6.1,3.3,0,6.2-2.6,6.1-6.1Z" fill="#fff" stroke-width="0"/>
    </g>
    <g>
      <path d="m14.2,227.3c.5,0,1,0,1.3.2.4.1.7.3.9.5.2.2.4.5.5.8s.2.7.2,1.1,0,.8-.1,1c0,.3-.2.5-.4.7-.2.2-.4.4-.6.5s-.5.2-.8.3c.2.3.5.6.7.9.2.4.5.7.7,1.1.2.4.4.7.6,1.1s.3.6.4.8h-.6c0,0-.2,0-.2,0,0,0,0,0,0-.1,0-.2-.2-.4-.4-.7-.2-.3-.3-.6-.5-.9-.2-.3-.4-.7-.7-1-.2-.4-.5-.7-.8-1h-1.9v3.8h-.6c-.1,0-.2,0-.2-.2v-8.7c.3,0,.7-.1,1.2-.2.5,0,.9,0,1.4,0Zm0,.7c-.4,0-.8,0-1.1,0-.3,0-.6,0-.8,0v3.8h2c.3,0,.6,0,.8,0,.2,0,.5-.1.6-.3.2-.1.3-.3.4-.6,0-.3.1-.6.1-1s0-.7-.1-.9c0-.3-.2-.5-.4-.6-.2-.2-.4-.3-.6-.3-.3,0-.6,0-.9,0Z" fill="#000100" stroke-width="0"/>
      <path d="m21.4,236.5c-.5,0-.9,0-1.3-.2s-.6-.3-.9-.6c-.2-.3-.4-.6-.5-1-.1-.4-.2-1-.2-1.6s0-1.2.2-1.6c.1-.4.3-.8.5-1.1.2-.3.5-.5.8-.6.3-.1.7-.2,1.1-.2s.9,0,1.2.2c.3.1.5.3.7.6.2.2.3.5.4.9,0,.3,0,.7,0,1.1s0,.3,0,.5c0,.2,0,.3,0,.4h-4.1c0,.4,0,.8.1,1.1,0,.3.2.6.3.8.2.2.4.3.7.4.3,0,.6.1,1.1.1s.8,0,1,0c.3,0,.4,0,.5,0s.1,0,.2,0c0,0,0,0,0,.1v.3c-.2,0-.5.1-.8.2-.3,0-.7,0-1.1,0Zm-.2-6.2c-.4,0-.7,0-.9.2s-.4.3-.6.5c-.1.2-.2.5-.3.8,0,.3,0,.6-.1,1h3.5c0,0,0-.1,0-.2v-.2c0-.3,0-.7,0-.9,0-.3-.1-.5-.2-.7-.1-.2-.3-.3-.5-.4-.2,0-.5-.1-.8-.1Z" fill="#000100" stroke-width="0"/>
      <path d="m26.9,236.3c0,0-.2,0-.3,0-.1,0-.3,0-.4,0-.4,0-.6-.1-.8-.3-.2-.2-.3-.5-.3-.9v-8.2h.5c.1,0,.2,0,.2.2v8c0,.3,0,.4.1.5,0,0,.3,0,.5,0h.3c0,0,.1,0,.1,0,0,0,0,0,0,.1v.4Z" fill="#000100" stroke-width="0"/>
      <path d="m30.8,236.5c-.5,0-.9,0-1.3-.2s-.6-.3-.9-.6c-.2-.3-.4-.6-.5-1-.1-.4-.2-1-.2-1.6s0-1.2.2-1.6c.1-.4.3-.8.5-1.1.2-.3.5-.5.8-.6.3-.1.7-.2,1.1-.2s.9,0,1.2.2c.3.1.5.3.7.6.2.2.3.5.4.9,0,.3,0,.7,0,1.1s0,.3,0,.5c0,.2,0,.3,0,.4h-4.1c0,.4,0,.8.1,1.1,0,.3.2.6.3.8.2.2.4.3.7.4.3,0,.6.1,1.1.1s.8,0,1,0c.3,0,.4,0,.5,0s.1,0,.2,0c0,0,0,0,0,.1v.3c-.2,0-.5.1-.8.2-.3,0-.7,0-1.1,0Zm-.2-6.2c-.4,0-.7,0-.9.2s-.4.3-.6.5c-.1.2-.2.5-.3.8,0,.3,0,.6-.1,1h3.5c0,0,0-.1,0-.2v-.2c0-.3,0-.7,0-.9,0-.3-.1-.5-.2-.7-.1-.2-.3-.3-.5-.4-.2,0-.5-.1-.8-.1Z" fill="#000100" stroke-width="0"/>
      <path d="m38.9,229.8c0,0,.1,0,.2,0,0,0,0,0,0,.1,0,.5-.2,1.1-.3,1.6-.1.5-.3,1.1-.5,1.6s-.4,1.1-.6,1.6c-.2.5-.5,1-.7,1.5h-.6c0,0-.1,0-.2,0,0,0,0,0-.1-.2-.2-.5-.5-1-.7-1.5-.2-.5-.4-1.1-.6-1.6s-.3-1.1-.5-1.6c-.1-.5-.2-1.1-.3-1.6h.6c.1,0,.2,0,.2.2.1,1,.4,2,.7,3,.3,1,.7,1.9,1.1,2.7.2-.4.4-.9.6-1.3.2-.5.4-1,.5-1.5.2-.5.3-1,.4-1.5.1-.5.2-1,.3-1.5h.5Z" fill="#000100" stroke-width="0"/>
      <path d="m44,235.7c-.1.1-.2.2-.4.3s-.3.2-.5.3c-.2,0-.4.1-.6.2-.2,0-.4,0-.6,0-.7,0-1.2-.2-1.6-.5-.3-.4-.5-.9-.5-1.5s.2-1.3.6-1.6c.4-.3,1-.5,1.8-.5h1.7v-.5c0-.3,0-.5,0-.7,0-.2-.2-.4-.3-.5-.1-.1-.3-.2-.6-.3s-.5,0-.9,0-.8,0-1.1,0-.5,0-.6,0-.2,0-.2-.2v-.3c.3,0,.7-.2,1.1-.2.4,0,.7,0,1,0,.5,0,.9,0,1.2.2s.6.3.7.5c.2.2.3.4.4.7,0,.3.1.6.1.9v4.5h-.5c-.1,0-.2,0-.2-.2v-.5Zm0-2.7h-1.7c-.3,0-.6,0-.8.1-.2,0-.4.2-.5.3-.1.1-.2.3-.3.5,0,.2,0,.4,0,.6,0,.5.1.9.4,1.1.3.2.6.3,1.1.3s.8,0,1.2-.3c.3-.2.6-.4.8-.6v-2Z" fill="#000100" stroke-width="0"/>
      <path d="m47.1,230.6c0,0,.2-.2.3-.3.1-.1.3-.2.5-.3.2,0,.4-.2.6-.2.2,0,.5,0,.7,0,.6,0,1.1.2,1.5.5.4.4.6.9.6,1.7v4.4h-.5c-.1,0-.2,0-.2-.2v-4.2c0-.6-.1-1-.4-1.3-.3-.3-.6-.4-1.1-.4s-.5,0-.7,0c-.2,0-.4.1-.6.2-.2,0-.3.2-.4.3-.1.1-.2.2-.3.3v5.1h-.5c-.1,0-.2,0-.2-.2v-6.3h.5c.1,0,.2,0,.2.2v.5Z" fill="#000100" stroke-width="0"/>
      <path d="m57.1,236.2c-.2,0-.4.1-.8.2-.3,0-.6,0-.9,0-.5,0-.9,0-1.2-.2-.3-.2-.6-.4-.8-.7-.2-.3-.3-.6-.4-1.1,0-.4-.1-.9-.1-1.4,0-1.2.2-2.1.6-2.6.4-.5,1.1-.8,1.9-.8s.3,0,.4,0c.2,0,.3,0,.4,0,.1,0,.3,0,.4,0,.1,0,.2,0,.2,0,.1,0,.2.1.2.2v.4c-.3,0-.5,0-.8-.1-.2,0-.5,0-.7,0s-.6,0-.8.1c-.2,0-.4.2-.6.4-.2.2-.3.5-.4.8,0,.4-.1.8-.1,1.3s0,1,.1,1.4c0,.4.2.6.4.8.2.2.4.3.6.4.2,0,.5.1.8.1s.6,0,.8,0c.2,0,.4,0,.5,0s.1,0,.2,0c0,0,0,0,0,.1v.3Z" fill="#000100" stroke-width="0"/>
      <path d="m61.1,236.5c-.5,0-.9,0-1.3-.2-.4-.1-.6-.3-.9-.6-.2-.3-.4-.6-.5-1-.1-.4-.2-1-.2-1.6s0-1.2.2-1.6c.1-.4.3-.8.5-1.1.2-.3.5-.5.8-.6.3-.1.7-.2,1.1-.2s.9,0,1.2.2c.3.1.5.3.7.6.2.2.3.5.4.9,0,.3,0,.7,0,1.1s0,.3,0,.5c0,.2,0,.3,0,.4h-4.1c0,.4,0,.8.1,1.1,0,.3.2.6.3.8.2.2.4.3.7.4.3,0,.6.1,1.1.1s.8,0,1,0c.3,0,.4,0,.5,0s.1,0,.2,0c0,0,0,0,0,.1v.3c-.2,0-.5.1-.8.2-.3,0-.7,0-1.1,0Zm-.2-6.2c-.4,0-.7,0-.9.2-.2.1-.4.3-.6.5-.1.2-.2.5-.3.8,0,.3,0,.6-.1,1h3.5c0,0,0-.1,0-.2v-.2c0-.3,0-.7,0-.9,0-.3-.1-.5-.2-.7-.1-.2-.3-.3-.5-.4-.2,0-.5-.1-.8-.1Z" fill="#000100" stroke-width="0"/>
    </g>
  </g>
  <g id="Layer_3" class="image" data-name="Layer 3">
    <path d="m205.2,156l-21.5-21.5-4.5-4.5-15.5-15.5h-55.5l-15.5,15.5,24.4,24.4c9.1,9.1,9.1,23.8,0,32.9l-24.4,24.4,9.2,9.2h68.1l9.2-9.2,4.5-4.5,21.5-21.5c8.2-8.2,8.2-21.5,0-29.7Z" fill="#fbd800" stroke-width="0"/>
    <g>
      <path d="m144.6,151.8c0,.5-.1.9-.2,1.4-.2.8-.4,1.7-.6,2.5,0,.5-.2.9-.2,1.4,0,.6.4.8.8.9.4,0,.9,0,1-.6.2-1.1.5-2.2.8-3.2,0-.2,0-.3.2-.5.2.4.4.7.5,1,.5,1.2,1,2.5,1.6,3.7.2.4.4.9.6,1.3.5.8,1.3.8,1.8,0,0,0,.1-.2.2-.3-1.2-2.6-2.3-5.1-3.5-7.7.3,0,.6-.1,1-.1,2.3,0,4.5,0,6.8,0,.7,0,.9.4,1.2.8.4.6.7,1.2,1.2,1.8,1.1,1.3,2.2,2.6,3.3,3.9.8.9,1.8,1.8,2.6,2.7,1,1.2,2,2.4,3,3.7.6.8,1.2,1.6,1.7,2.5.4.8.8,1.6,1.2,2.4.3.5.6,1,.7,1.6.3.8.4,1.6.6,2.4,0,.2,0,.4.1.7.5,1.4.5,2.9.7,4.4.2,1.6.2,3.2.1,4.8,0,1.3-.3,2.5-.4,3.8-.1,1.1-.3,2.3-.5,3.4-.1.6-.4,1.3-.6,1.9-.2.6-.4,1.3-.8,1.8-.8,1.2-1.6,2.3-2.8,3.1-.9.6-1.9,1-2.9,1.4-1.3.5-2.8.5-4.2.7-.7.1-1.4.1-2.1.1-3.6,0-7.2,0-10.7,0s-2.9,0-4.3,0c-1.3,0-2.7-.2-4-.5-1-.2-1.9-.5-2.8-1-1.4-.7-2.6-1.7-3.5-3-.8-1.2-1.4-2.6-1.8-4-.4-1.6-.8-3.2-.8-4.9-.2-2.9-.1-5.8-.1-8.8,0-.4.1-.7.2-1.1.1-.6.2-1.3.3-1.9.3-1,.5-2,.9-3,.4-1.1.9-2.1,1.4-3.1.5-.9,1-1.9,1.6-2.8.5-.7,1.1-1.4,1.6-2.1.9-1.1,1.9-2.2,2.8-3.2.6-.7,1.4-1.4,2-2.1.7-.7,1.3-1.5,1.9-2.2.6-.8,1.2-1.6,1.8-2.4.2-.3.3-.6.5-.9,0-.2.2-.3.3-.4,0,0,0,0,.1,0Zm18.3,25.5c.1-7.3-6-12.3-11.5-12.7-4.2-.3-7.7,1.2-10.6,4.2-2.3,2.4-3.3,5.4-3.2,8.8.2,6.9,5.6,12.3,12.7,12.4,3.3,0,6.4-1.3,8.8-3.8,2.4-2.5,3.7-5.4,3.7-8.9Z" fill="#fff" stroke-width="0"/>
      <path d="m150.2,149.4c-1.5,0-3.1,0-4.6,0-.4,0-.9.2-1.2-.2-.2-.2-.3-.5-.5-.7-.5-.9-1-1.8-1.6-2.7-.7-1.2-1.5-2.3-2.2-3.5-.6-1-1.3-2-1.9-3-.2-.4,0-.7.6-1,1.1-.6,2.2-1.2,3.3-1.8.2,0,.5,0,.7,0,.6.4,1.2.9,1.8,1.4.5.4,1,.8,1.5,1.1,0,0,.4,0,.5,0,1.1-.8,2.1-1.6,3.2-2.4.3-.2.5-.3.8,0,.8.7,1.7,1.3,2.5,2,.7.6,1.2.5,2-.1.8-.7,1.7-1.4,2.5-2,.1,0,.4,0,.5,0,1,.5,2,1.1,3,1.6,0,0,.2,0,.3.1.8.3,1,.7.6,1.5-.3.6-.7,1.1-1,1.6-.4.6-.8,1.3-1.2,1.9-.4.7-.8,1.3-1.2,2-.2.4-.5.8-.8,1.2-.6,1-1.3,2-1.9,3,0,0-.2.2-.3.2-1.8,0-3.6,0-5.3,0,0,0,0,0,0-.1Z" fill="#fff" stroke-width="0"/>
      <path d="m178.9,154.9c-3.7,0-7.4,0-11.1,0-.6,0-.9-.4-.6-.8.1-.2.4-.3.7-.3,2,0,4,0,6,0,1.5,0,3,0,4.6,0,1.9,0,3.9,0,5.8,0,1.6,0,3.3,0,4.9,0,.4,0,.8,0,1.3,0,.1,0,.3-.1.3-.2,0-.1,0-.3-.2-.4-1-1-2-1.9-3-2.9,0,0-.2-.1-.2-.2,0-.3-.2-.6-.1-.8.1-.3.8-.2,1,0,1.5,1.5,3.1,3,4.6,4.6.2.2.2.9,0,1.1-1.5,1.5-3,3-4.5,4.5-.2.2-.6.2-1,.2-.3,0-.2-.7,0-1,1-.9,2-1.9,2.9-2.8.2-.2.3-.4.4-.7-.3,0-.5-.2-.8-.2-3.7,0-7.3,0-11,0Z" fill="#fff" stroke-width="0"/>
      <path d="m180.7,168.3c-3,0-6,0-9.1,0-.4,0-.8,0-.8-.5,0-.5.3-.7.8-.7,6,0,12.1,0,18.1,0,.2,0,.3,0,.5,0,.4,0,.5-.4.2-.7-.7-.7-1.4-1.4-2.1-2.1-.4-.4-.8-.7-1.1-1.1-.1-.2,0-.5,0-.8.3,0,.8-.1,1,0,.9.8,1.6,1.7,2.5,2.5.7.7,1.4,1.4,2.2,2.1.2.2.3.9,0,1.1-1.2,1.1-2.4,2.3-3.5,3.4-.4.4-.7.8-1.1,1.2-.3.3-.8.4-1,.1-.3-.4,0-.6.2-.9.7-.7,1.4-1.5,2.1-2.2.3-.3.6-.5.9-.8.1-.1.2-.3.2-.4,0-.1-.3-.3-.4-.3-.4,0-.8,0-1.2,0h-8.3Z" fill="#fff" stroke-width="0"/>
      <path d="m181.9,180.5c2.7,0,5.4,0,8,0,.2,0,.5-.2.7-.3-.1-.2-.2-.4-.3-.6-1-1-2-1.9-3-2.9-.2-.2-.5-.6-.2-.9.2-.2.8-.1,1,0,1.6,1.5,3.1,3,4.6,4.5.4.4.3.9,0,1.3-.9.8-1.7,1.7-2.5,2.6-.7.7-1.3,1.4-2,2-.2.2-.6,0-1,0,0-.3,0-.6.1-.7,1-1,2-2,3-3,.2-.2.2-.4.3-.6-.2-.1-.5-.3-.7-.3-3.1,0-6.1,0-9.2,0-2.3,0-4.6,0-6.9,0-.5,0-.6-.2-.7-.6,0-.5.3-.5.7-.5,2.7,0,5.4,0,8,0Z" fill="#fff" stroke-width="0"/>
      <path d="m150.3,187.8c-.8,0-1.5,0-2.3-.2-1.1-.2-2.2-.5-3.1-1.2-.9-.7-1.8-1.3-2.5-2-.7-.7-1.3-1.6-1.8-2.5-.3-.5-.3-1.2-.5-1.8-.7-1.4-.3-2.9-.4-4.4,0-.2,0-.4.1-.7.3-.9.5-1.8.9-2.6.4-.9,1-1.7,1.6-2.5.7-.9,1.6-1.5,2.5-2.1.9-.6,1.9-.9,2.8-1.2.5-.2,1.1-.2,1.6-.2,1.2,0,2.4,0,3.6.1.6,0,1.1.3,1.7.6,1.3.6,2.5,1.4,3.5,2.4.8.8,1.4,1.7,1.9,2.7.8,1.6,1.2,3.4,1.2,5.1,0,1.1-.4,2.2-.7,3.3-.3.8-.6,1.7-1.2,2.4-.7,1-1.6,1.8-2.5,2.6-.8.6-1.7,1.1-2.6,1.4-1.2.5-2.4.7-3.7.6Zm.3-4.9c.6-.2,1.1-.3,1.7-.5,1-.3,2-1.6,2.1-2.7,0-.8-.2-1.5-.6-2.2-.4-.6-1-1.2-1.8-1.2-.7,0-1.5-.1-2.2,0-.7,0-1.1-.4-1.5-.8-.4-.5,0-1.5.7-1.7,1.3-.4,2.5-.3,3.8-.1.7,0,1.6-.4,1.6-1,0-.5-.5-1-1.1-1-.5,0-1.1,0-1.6,0,0-.4,0-.8,0-1.1,0-.5-.5-.9-1-.9-.5,0-.8.4-.8,1,0,.4,0,.7,0,.9-.6.2-1.2.4-1.7.6-1.8.7-2.3,2.8-1.6,4.3.6,1.1,1.5,1.9,2.9,1.8.5,0,1.1,0,1.6,0,1,0,1.6,1.1,1.1,2-.3.6-.7.6-1.2.6-1.2,0-2.4,0-3.6,0-.5,0-.9.2-1,.6-.2.9.2,1.4,1.1,1.4q1.2,0,1.2,1.2c0,.5.4.9.9.9.6,0,.9-.3.9-.8,0-.4,0-.8,0-1Z" fill="#fff" stroke-width="0"/>
    </g>
    <g>
      <path d="m114.4,108.9c0-.4-.1-.8-.2-1.3,0-.4-.2-.9-.3-1.3h-3.6c-.1.5-.2.9-.3,1.4,0,.5-.2.9-.3,1.4h-.5c-.1,0-.2,0-.2-.2.2-1,.4-2,.6-3,.2-.9.5-1.8.7-2.5.3-.8.5-1.4.7-2,.2-.6.4-1,.6-1.3h.6c0,0,.1,0,.1,0,0,0,0,0,.1.2.2.4.4.8.6,1.4.2.6.5,1.3.7,2,.2.8.5,1.6.7,2.5.2.9.4,1.9.6,2.9h-.6c-.1,0-.2,0-.2-.2Zm-2.3-8.1c-.3.8-.6,1.6-.9,2.4-.3.8-.5,1.6-.7,2.5h3.3c-.2-.8-.4-1.6-.7-2.5-.3-.8-.6-1.6-.9-2.4Z" fill="#000100" stroke-width="0"/>
      <path d="m120.1,101.3c0-.2,0-.4,0-.6,0-.2.1-.4.3-.5.1-.2.3-.3.5-.4.2,0,.5-.1.8-.1s.1,0,.2,0c0,0,.2,0,.2,0s.2,0,.3,0c0,0,.2,0,.2,0,0,0,.1,0,.1.1,0,0,0,0,0,.1v.3c-.2,0-.4,0-.5,0-.1,0-.3,0-.4,0-.2,0-.4,0-.5,0-.1,0-.2.1-.3.2,0,0-.1.2-.1.3,0,.1,0,.3,0,.5v1.2h1.5c.1,0,.2,0,.2.2v.4h-1.7v5.9h-.5c-.1,0-.2,0-.2-.2v-5.7h-2.6v5.9h-.5c-.1,0-.2,0-.2-.2v-5.7h-.6c-.1,0-.2,0-.2-.2v-.4h.8v-1.3c0-.2,0-.4,0-.6,0-.2.1-.4.3-.5.1-.2.3-.3.5-.4.2,0,.5-.1.8-.1s.1,0,.2,0c0,0,.2,0,.2,0,0,0,.2,0,.3,0,0,0,.2,0,.2,0,0,0,.1,0,.1.1,0,0,0,0,0,.1v.3c-.2,0-.4,0-.5,0-.1,0-.3,0-.4,0-.2,0-.4,0-.5,0-.1,0-.2.1-.3.2,0,0-.1.2-.1.3,0,.1,0,.3,0,.5v1.2h2.6v-1.3Z" fill="#000100" stroke-width="0"/>
      <path d="m126.1,102.4c.9,0,1.6.3,2,.8s.6,1.4.6,2.6-.2,2-.6,2.6c-.4.6-1.1.8-2,.8s-1.6-.3-2-.8c-.4-.6-.6-1.4-.6-2.6s.2-2,.6-2.6c.4-.6,1.1-.8,2-.8Zm0,6.2c.3,0,.6,0,.8-.1.2,0,.4-.3.6-.5.2-.2.3-.5.4-.9,0-.4.1-.8.1-1.3s0-.9-.1-1.3c0-.4-.2-.6-.4-.9-.2-.2-.4-.4-.6-.5-.2,0-.5-.1-.8-.1s-.6,0-.8.1-.4.3-.6.5c-.2.2-.3.5-.4.9,0,.4-.1.8-.1,1.3s0,.9.1,1.3c0,.4.2.6.4.9.2.2.4.4.6.5.2,0,.5.1.8.1Z" fill="#000100" stroke-width="0"/>
      <path d="m133,102.5c.2,0,.3,0,.3,0,0,0,0,0,0,.2v.5c0,0-.1,0-.2,0h-.2c-.4,0-.8,0-1.1.2-.3.2-.6.4-.9.8v4.9h-.5c-.1,0-.2,0-.2-.2v-6.3h.5c.1,0,.2,0,.2.2v.7c.1-.1.2-.2.4-.3.1-.1.3-.2.5-.3.2,0,.4-.2.5-.2.2,0,.4,0,.6,0Z" fill="#000100" stroke-width="0"/>
      <path d="m139,109.1c-.1,0-.2,0-.2-.2v-.5c-.2.2-.5.4-.8.6-.3.2-.7.3-1.2.3s-.8,0-1.1-.3c-.3-.2-.5-.4-.7-.7-.2-.3-.3-.7-.4-1.1,0-.4-.1-.9-.1-1.4,0-1.2.2-2.1.7-2.6.5-.5,1.1-.8,2-.8s.8,0,1,.1c.3,0,.5.2.6.2v-3h.5c.1,0,.2,0,.2.2v9.1h-.5Zm-.2-5.7c-.2-.1-.5-.2-.7-.3-.2,0-.5-.1-.9-.1s-.7,0-.9.1c-.3,0-.5.3-.6.5-.2.2-.3.5-.4.9,0,.4-.1.8-.1,1.3,0,.9.1,1.6.4,2.1.2.5.7.7,1.3.7s.4,0,.6,0c.2,0,.4-.1.5-.2.2,0,.3-.2.4-.3.1-.1.2-.2.3-.3v-4.3Z" fill="#000100" stroke-width="0"/>
      <path d="m145.2,108.4c-.1.1-.2.2-.4.3-.1,0-.3.2-.5.3-.2,0-.4.1-.6.2-.2,0-.4,0-.6,0-.7,0-1.2-.2-1.6-.5-.3-.4-.5-.9-.5-1.5s.2-1.3.6-1.6c.4-.3,1-.5,1.8-.5h1.7v-.5c0-.3,0-.5,0-.7,0-.2-.2-.4-.3-.5-.1-.1-.3-.2-.6-.3-.2,0-.5,0-.9,0s-.8,0-1.1,0-.5,0-.6,0-.2,0-.2-.2v-.3c.3,0,.7-.2,1.1-.2.4,0,.7,0,1,0,.5,0,.9,0,1.2.2.3.1.6.3.7.5.2.2.3.4.4.7,0,.3.1.6.1.9v4.5h-.5c-.1,0-.2,0-.2-.2v-.5Zm0-2.7h-1.7c-.3,0-.6,0-.8.1-.2,0-.4.2-.5.3-.1.1-.2.3-.3.5,0,.2,0,.4,0,.6,0,.5.1.9.4,1.1.3.2.6.3,1.1.3s.8,0,1.2-.3c.3-.2.6-.4.8-.6v-2Z" fill="#000100" stroke-width="0"/>
      <path d="m148.3,103c.2-.2.5-.3.8-.4s.7-.2,1.1-.2c.8,0,1.4.3,1.8.8.4.6.6,1.4.6,2.5s0,1.2-.2,1.6c-.1.4-.3.8-.5,1.1-.2.3-.5.5-.8.6-.3.1-.7.2-1.2.2s-.4,0-.6,0c-.2,0-.4,0-.6,0-.2,0-.4,0-.5-.1-.2,0-.3,0-.4-.1-.1,0-.2,0-.2-.1,0,0,0-.1,0-.2v-8.8h.4c.1,0,.2,0,.3,0,0,0,0,.1,0,.3v2.9Zm0,5.4c.2,0,.5,0,.7.1.3,0,.5,0,.8,0s.7,0,.9-.1c.3,0,.5-.2.6-.4.2-.2.3-.5.4-.9,0-.4.1-.8.1-1.4,0-1-.1-1.7-.4-2.1s-.7-.6-1.3-.6-.8,0-1,.2c-.3.1-.5.3-.8.4v4.7Z" fill="#000100" stroke-width="0"/>
      <path d="m156,109.1c0,0-.2,0-.3,0-.1,0-.3,0-.4,0-.4,0-.6-.1-.8-.3-.2-.2-.3-.5-.3-.9v-8.2h.5c.1,0,.2,0,.2.2v8c0,.3,0,.4.1.5,0,0,.3,0,.5,0h.3c0,0,.1,0,.1,0,0,0,0,0,0,.1v.4Z" fill="#000100" stroke-width="0"/>
      <path d="m159.9,109.2c-.5,0-.9,0-1.3-.2-.4-.1-.6-.3-.9-.6-.2-.3-.4-.6-.5-1-.1-.4-.2-1-.2-1.6s0-1.2.2-1.6c.1-.4.3-.8.5-1.1.2-.3.5-.5.8-.6.3-.1.7-.2,1.1-.2s.9,0,1.2.2c.3.1.5.3.7.6.2.2.3.5.4.9,0,.3,0,.7,0,1.1s0,.3,0,.5c0,.2,0,.3,0,.4h-4.1c0,.4,0,.8.1,1.1,0,.3.2.6.3.8.2.2.4.3.7.4.3,0,.6.1,1.1.1s.8,0,1,0c.3,0,.4,0,.5,0s.1,0,.2,0c0,0,0,0,0,.1v.3c-.2,0-.5.1-.8.2-.3,0-.7,0-1.1,0Zm-.2-6.2c-.4,0-.7,0-.9.2-.2.1-.4.3-.6.5-.1.2-.2.5-.3.8,0,.3,0,.6-.1,1h3.5c0,0,0-.1,0-.2v-.2c0-.3,0-.7,0-.9,0-.3-.1-.5-.2-.7-.1-.2-.3-.3-.5-.4-.2,0-.5-.1-.8-.1Z" fill="#000100" stroke-width="0"/>
    </g>
  </g>
  <g id="Layer_4" class="image" data-name="Layer 4">
    <path d="m305,156l-21.5-21.5-4.5-4.5-15.5-15.5h-55.5l-15.5,15.5,24.4,24.4c9.1,9.1,9.1,23.8,0,32.9l-24.4,24.4,9.2,9.2h68.1l9.2-9.2,4.5-4.5,21.5-21.5c8.2-8.2,8.2-21.5,0-29.7Z" fill="#60b046" stroke-width="0"/>
    <g>
      <path d="m280.7,165.6c-.3.4-.5.7-.7,1-.7.7-.6,1.6-.2,2.4.4.8,1.1,1.6,1.7,2.3.4.5,1,.6,1.7.5,1.1-.3,1.1-.3,1.1.9,0,5.7,0,11.4,0,17.2,0,.8-.3,1-1.1.9-.7,0-1.5,0-2.2,0-1.5,0-3.1,0-4.6,0-.3,0-.5,0-.8,0-.5,0-.9-.3-.9-.8,0-11.4,0-22.8,0-34.2,0-.7.3-1,1-.8.2,0,.4,0,.6,0,2,0,4,0,6,0,.3,0,.6,0,1.1-.1-.2.2-.3.4-.4.5-1.1,1-1.2,1.5-.6,2.8.2.5,0,.6-.4.5-1.2,0-2.1.4-2.6,1.5-.1.3-.2.6-.2.9-.1.6-.3,1.2-.4,1.8-.1,1,.5,1.6,1.3,2.1.2.1.4.3.6.5Z" fill="#fff" stroke-width="0"/>
      <path d="m262.1,177.5c0-4.1,0-8.2,0-12.3,0-1,0-1,1-1,2.6,0,5.1,0,7.7,0,.6,0,.9.2.9.9,0,8.3,0,16.7,0,25,0,.4-.3.8-.8.8-2.6,0-5.2,0-7.8,0-.8,0-.9-.4-.9-.9,0-4.1,0-8.2,0-12.4Z" fill="#fff" stroke-width="0"/>
      <path d="m237.3,169.8c1-.2,2-.4,2.9-.6.7-.2,1.4-.4,2.1-.6.8-.2,1.5-.4,2.3-.7.9-.4,1.8-.8,2.7-1.2.5-.2.9-.4,1.4-.6.8-.4,1.5-.8,2.2-1.2.9-.5,1.8-1.1,2.7-1.6.7-.5,1.4-1,2.1-1.5.7-.5,1.3-1.1,2-1.7,1.1-1,2.2-1.9,3.2-3,1.1-1.1,2-2.3,3-3.6.6-.7,1.1-1.5,1.6-2.2.6-.9,1.2-1.8,1.7-2.8.4-.7.8-1.5,1.1-2.3.4-.8.7-1.5,1.1-2.3.3-.6.3-.6-.3-.9-.6-.3-1.1-.6-1.7-.9-.1,0-.2-.2-.5-.5.8-.4,1.5-.8,2.2-1.1.4-.2.8-.4,1.2-.6.7-.4,1.5-.8,2.2-1.2.7-.4,1.5-.7,2.2-1,.3-.1.6-.4.9-.5.4-.1.7,0,.8.4.2,1.2.4,2.4.6,3.6,0,.3.2.6.2,1,.3,1.4.5,2.9.8,4.3,0,.2,0,.5-.2.7,0,0-.4,0-.6-.2-.5-.2-1-.6-1.6-.7-.2,0-.6.1-.8.3-.9,1.3-1.6,2.8-2.5,4.1-.9,1.3-1.9,2.5-3,3.7-1.2,1.3-2.4,2.6-3.7,3.8-1.1,1-2.2,1.9-3.4,2.8-1.2.9-2.4,1.8-3.6,2.6-.9.6-2,1.1-2.9,1.6-.7.4-1.4.8-2.1,1.2-.4.2-.9.4-1.4.6-.6.2-1.2.4-1.8.6-.6.2-1.1.5-1.7.6-.9.3-1.7.5-2.6.7-1.1.3-2.1.6-3.2.8-1.1.2-2.2.3-3.3.5-.5,0-1.1,0-1.7.1-.1,0-.3,0-.4,0,0,0,0,0,0-.1Z" fill="#fff" stroke-width="0"/>
      <path d="m282.8,165.6c0-.8-.4-1.3-1.1-1.6-.2,0-.3-.2-.4-.3-1-.3-.5-1.1-.5-1.7,0-.1,0-.3,0-.4,0-.4.2-.8.7-.8.6,0,1.2-.2,1.7-.3.7-.2,1.1-1.1.9-1.8-.1-.4-.2-.9-.2-1.3,0-.4,0-.7.5-.8.4-.1.7-.5,1.1-.7.2,0,.6,0,.7,0,.4.2.7.5,1.1.8.9.7,1.8.5,2.3-.4.3-.4.6-.8.9-1.2,0,0,.2-.2.3-.1.5.1,1.1.2,1.6.4.4,0,.6.3.6.8,0,.3,0,.6,0,1,0,.7.6,1.6,1.3,1.7.4,0,.8-.1,1.2-.2.4,0,.9-.3,1.1-.2.4.3.7.8,1,1.2.7.9,0,1.4-.5,1.9-.9,1.1-.8,1.9.4,2.6.3.2.6.3.8.6.2.2.3.5.3.8,0,.3,0,.6-.1.9-.2.9-.6,1.3-1.8,1.2-.9,0-1.3.5-1.7,1.1-.1.2,0,.5,0,.7,0,.4.1.8.3,1.2.3.6-.1.8-.4,1-.3.3-.7.4-1.1.7-.4.2-.7.1-.9-.1-.4-.3-.8-.7-1.2-1-.5-.4-1.5-.1-1.9.4-.3.5-.6,1-1,1.5,0,.1-.4.2-.6.1-.6-.1-1.2-.3-1.7-.5-.1,0-.2-.3-.2-.4,0-.4,0-.9-.1-1.3-.2-1.2-1.1-1.7-2.3-1.4-.2,0-.5.2-.7.3-.4.2-.8,0-1-.3-.3-.5-.6-1-.9-1.5,0-.1,0-.4.1-.5.3-.4.7-.8,1-1.2.2-.2.2-.5.3-.7Zm7,1.5c1.6,0,3.2-1.4,3-3-.1-1.7-1.3-3-3.1-3-1.5,0-2.9,1.2-3,3,0,1.5,1.4,3.1,3.1,3Z" fill="#fff" stroke-width="0"/>
      <path d="m259,181c0,2.9,0,5.9,0,8.8,0,.6-.3,1-.9,1-2.6,0-5.1,0-7.7,0-.7,0-1-.3-1-1,0-2,0-3.9,0-5.9,0-3.5,0-7,0-10.6,0-.4,0-.8,0-1.2,0-.5.3-.7.7-.7,1.6,0,3.1,0,4.7,0,1.1,0,2.2,0,3.3,0,.7,0,.9.2.9.9,0,2.9,0,5.8,0,8.7Z" fill="#fff" stroke-width="0"/>
      <path d="m241.1,188.6c-.3.4-.5.6-.7.9-.7.8-.6,1.6.3,2.1.3.2.5.3.8.5,0,0,.2.3.1.4-.3.5,0,1.3-.5,1.6-.3.2-.8.1-1.1.1-.9,0-1.4.9-1.1,1.7.4,1-.1,1.9-1.2,2-.6,0-.8-.4-1.1-.7-.5-.5-1.5-.5-2,.3-.2.3-.4.8-.7.9-.5,0-1.1,0-1.6-.2-.1,0-.2-.3-.2-.5,0-.2,0-.5,0-.7,0-1-.8-1.5-1.7-1.2-1.1.4-1,.3-1.7-.6-.6-.8-.6-.8.2-1.6.7-.7.6-1.7-.4-2.2-.3-.1-.6-.3-.7-.6-.1-.4,0-.8,0-1.2,0-.5.4-.9,1.1-.8.5,0,1,0,1.4-.5.4-.4.4-.8.2-1.3-.4-1.1-.4-1.1.6-1.6.1,0,.2-.2.3-.2.3,0,.6-.1.8,0,.3.1.5.4.8.6.6.5,1.6.2,1.8-.4,0-.1.1-.2.2-.3.2-.2.4-.6.6-.6.5,0,1,0,1.5.3.2,0,.3.4.4.6,0,.2,0,.4,0,.6,0,1.1.9,1.7,1.9,1.3.3-.1.7-.3.8-.1.4.4.7.9,1.1,1.5Zm-4.2,2.9c.2-1.2-1.4-2.4-2.3-2.4-1.1,0-2.6,1.3-2.5,2.4,0,1.2,1,2.3,2.4,2.4,1.1,0,2.5-1.2,2.4-2.4Z" fill="#fff" stroke-width="0"/>
      <path d="m246.4,184.1c0,1.9,0,3.8,0,5.8,0,.6-.3.9-.9.9-.7,0-1.5,0-2.2,0-.3,0-.6-.1-.9-.3,0,0,0-.4,0-.5.4-.5.7-1,.6-1.6,0-.4-.2-.8-.5-1.2-.4-.6-.8-1.1-1.2-1.6-.4-.5-1-.5-1.5-.4-.7.1-.8,0-.8-.6,0-.8-1-1.6-1.6-1.7-.3,0-.4-.2-.4-.5,0-1.5,0-2.9,0-4.4,0-.4.1-.5.5-.5,2.8,0,5.6,0,8.3,0,.5,0,.7.2.7.7,0,1.9,0,3.8,0,5.8Z" fill="#fff" stroke-width="0"/>
      <path d="m242.8,194.4c0-.3,0-.6,0-.9,0-.4,0-.5.4-.5.1,0,.3,0,.4,0,13.3,0,26.6,0,39.9,0q.7,0,.7.8t-.9.9c-13.2,0-26.4,0-39.6,0-.3,0-.6,0-.9-.1,0,0,0-.1,0-.2Z" fill="#fff" stroke-width="0"/>
    </g>
    <g>
      <path d="m216.4,228h-4.2v3.5h3.7c.1,0,.2,0,.2.2v.5h-3.8v3.5h4.1c.1,0,.2,0,.2.2v.5h-4.9c-.1,0-.2,0-.2-.2v-8.8h4.7c.1,0,.2,0,.2.2v.5Z" fill="#000100" stroke-width="0"/>
      <path d="m221.8,228.5c0-.2,0-.4,0-.6,0-.2.1-.4.2-.5.1-.1.3-.3.4-.4.2,0,.4-.1.7-.1s.2,0,.4,0c.2,0,.3,0,.4,0,0,0,.1,0,.1.1,0,0,0,0,0,.1v.3c-.1,0-.2,0-.3,0,0,0-.1,0-.2,0,0,0-.1,0-.2,0h-.2c-.4,0-.6,0-.7.3-.1.2-.2.5-.2.8v1.2h3.2c.1,0,.2,0,.2.2v6.3h-.5c-.1,0-.2,0-.2-.2v-5.7h-2.6v5.9h-.5c-.1,0-.2,0-.2-.2v-5.7h-2.6v5.9h-.5c-.1,0-.2,0-.2-.2v-5.7h-.6c-.1,0-.2,0-.2-.2v-.4h.8v-1.4c0-.2,0-.4,0-.5,0-.2.1-.3.3-.5.1-.1.3-.3.5-.4.2,0,.5-.1.8-.1s.1,0,.2,0c0,0,.2,0,.2,0,0,0,.2,0,.3,0,0,0,.2,0,.2,0,0,0,.1,0,.1.1,0,0,0,0,0,.1v.3c-.2,0-.4,0-.5,0-.1,0-.2,0-.4,0-.2,0-.4,0-.5,0-.1,0-.2.1-.3.2,0,0-.1.2-.1.3,0,.1,0,.2,0,.4v1.4h2.6v-1.3Zm3.2-.5c0-.2,0-.3.1-.4,0,0,.2-.1.4-.1s.3,0,.4.1c0,0,.1.2.1.4s0,.3-.1.4c0,0-.2.1-.4.1s-.3,0-.4-.1c0,0-.1-.2-.1-.4Z" fill="#000100" stroke-width="0"/>
      <path d="m231.7,236.2c-.2,0-.4.1-.8.2-.3,0-.6,0-.9,0-.5,0-.9,0-1.2-.2-.3-.2-.6-.4-.8-.7-.2-.3-.3-.6-.4-1.1,0-.4-.1-.9-.1-1.4,0-1.2.2-2.1.6-2.6.4-.5,1.1-.8,1.9-.8s.3,0,.4,0c.2,0,.3,0,.4,0s.3,0,.4,0c.1,0,.2,0,.2,0,.1,0,.2.1.2.2v.4c-.3,0-.5,0-.8-.1-.2,0-.5,0-.7,0s-.6,0-.8.1c-.2,0-.4.2-.6.4-.2.2-.3.5-.4.8,0,.4-.1.8-.1,1.3s0,1,.1,1.4c0,.4.2.6.4.8.2.2.4.3.6.4.2,0,.5.1.8.1s.6,0,.8,0c.2,0,.4,0,.5,0s.1,0,.2,0c0,0,0,0,0,.1v.3Z" fill="#000100" stroke-width="0"/>
      <path d="m233.4,228.6c-.2,0-.3,0-.4-.1,0,0-.1-.2-.1-.4s0-.3.1-.4c0,0,.2-.1.4-.1s.3,0,.4.1c0,0,.1.2.1.4s0,.3-.1.4c0,0-.2.1-.4.1Zm-.4,1.3h.5c.1,0,.2,0,.2.2v6.3h-.5c-.1,0-.2,0-.2-.2v-6.3Z" fill="#000100" stroke-width="0"/>
      <path d="m238.2,236.5c-.5,0-.9,0-1.3-.2s-.6-.3-.9-.6c-.2-.3-.4-.6-.5-1-.1-.4-.2-1-.2-1.6s0-1.2.2-1.6c.1-.4.3-.8.5-1.1.2-.3.5-.5.8-.6.3-.1.7-.2,1.1-.2s.9,0,1.2.2c.3.1.5.3.7.6.2.2.3.5.4.9,0,.3,0,.7,0,1.1s0,.3,0,.5c0,.2,0,.3,0,.4h-4.1c0,.4,0,.8.1,1.1,0,.3.2.6.3.8.2.2.4.3.7.4.3,0,.6.1,1.1.1s.8,0,1,0c.3,0,.4,0,.5,0s.1,0,.2,0c0,0,0,0,0,.1v.3c-.2,0-.5.1-.8.2-.3,0-.7,0-1.1,0Zm-.2-6.2c-.4,0-.7,0-.9.2-.2.1-.4.3-.6.5-.1.2-.2.5-.3.8,0,.3,0,.6-.1,1h3.5c0,0,0-.1,0-.2v-.2c0-.3,0-.7,0-.9,0-.3-.1-.5-.2-.7-.1-.2-.3-.3-.5-.4-.2,0-.5-.1-.8-.1Z" fill="#000100" stroke-width="0"/>
      <path d="m242.6,230.6c0,0,.2-.2.3-.3.1-.1.3-.2.5-.3.2,0,.4-.2.6-.2.2,0,.5,0,.7,0,.6,0,1.1.2,1.5.5.4.4.6.9.6,1.7v4.4h-.5c-.1,0-.2,0-.2-.2v-4.2c0-.6-.1-1-.4-1.3-.3-.3-.6-.4-1.1-.4s-.5,0-.7,0c-.2,0-.4.1-.6.2-.2,0-.3.2-.4.3-.1.1-.2.2-.3.3v5.1h-.5c-.1,0-.2,0-.2-.2v-6.3h.5c.1,0,.2,0,.2.2v.5Z" fill="#000100" stroke-width="0"/>
      <path d="m251,235.8c.1,0,.2,0,.2,0,0,0,0,0,0,.1v.4c-.3,0-.6.1-.9.1s-.5,0-.7,0c-.2,0-.3-.2-.5-.3s-.2-.3-.2-.4c0-.2,0-.3,0-.5v-4.7h-.6c-.1,0-.2,0-.2-.2v-.4h.8v-1.8h.5c.1,0,.2,0,.2.2v1.6h1.5c.1,0,.2,0,.2.2v.4h-1.7v4.6c0,.1,0,.2,0,.3,0,0,0,.2.1.2,0,0,.2.1.3.2.1,0,.3,0,.5,0s.2,0,.3,0c0,0,.2,0,.2,0Z" fill="#000100" stroke-width="0"/>
    </g>
  </g>
  <g id="Layer_5" class="image" data-name="Layer 5">
    <path d="m404.8,156l-21.5-21.5-20-20h-55.5l-15.5,15.5,24.4,24.4c9.1,9.1,9.1,23.8,0,32.9l-24.4,24.4,9.2,9.2h68.1l13.7-13.7,21.5-21.5c8.2-8.2,8.2-21.5,0-29.7Z" fill="#446eb3" stroke-width="0"/>
    <g>
      <path d="m368.8,163.2c.5-.3.9-.7,1.3-.9.9-.5,1.8-.8,2.9-.8,1.4,0,2.7,0,4.1,0,.3,0,.5.1.5.5,0,.8,0,1.7-.3,2.5-.4,1.1-1,2.1-2,2.8-.4.3-.8.6-1.2.8-.5.2-1.1.4-1.7.5-1,.3-2.1.1-3.1.2-.2,0-.3,0-.3.3,0,.9,0,1.8,0,2.7,0,0,0,.1,0,.2.2-.2.4-.3.6-.4.7-.6,1.6-.9,2.5-1.1.5-.1,1.1,0,1.6,0,.5,0,1,0,1.4,0,.4,0,.9,0,1.3,0,.2,0,.4,0,.5,0,.4,0,.7.1.7.5,0,.5,0,1,0,1.6,0,.4-.3.9-.5,1.3-.2.4-.4.8-.6,1.2-.6,1-1.5,1.6-2.6,2.1-.2,0-.5.2-.7.3-.2,0-.3.2-.4.2.6.6,1.1,1.2,1.7,1.8.2.2.3.2.5,0,.4-.5.8-.9,1.2-1.4.4-.6.7-1.1,1.1-1.7.4-.7.8-1.5,1.2-2.3,0-.1,0-.2.1-.4.3-.9.7-1.8.9-2.8.1-.9.5-1.7.5-2.7,0-.4.2-.8.2-1.2,0-.6,0-1.2,0-1.8,0-.7,0-1.4-.2-2.2,0-.4,0-.9-.1-1.3-.1-.7-.4-1.5-.5-2.2,0-.5,0-1,0-1.4,0-.6,0-.6.6-.6,1.3,0,2.6,0,4,0,.5,0,.6.1.7.6.2.8.4,1.7.6,2.6.2.9.3,1.8.3,2.7,0,1.1,0,2.2,0,3.4,0,.6,0,1.3-.1,1.9,0,.6-.1,1.1-.2,1.7-.1.6-.3,1.2-.5,1.9-.2.8-.5,1.5-.7,2.2-.2.7-.4,1.5-.7,2.1-.3.8-.7,1.5-1.1,2.2-.4.7-.8,1.3-1.2,2-.3.4-.6.9-1,1.3-.4.5-.8.9-1.1,1.4,0,0,0,.3,0,.3.4.4.8.7,1.2,1.1,0,0,.2.2.2.2,0,.1-.2.2-.3.3-.4.1-.9.2-1.3.4-.6.2-1.2.3-1.9.5-.2,0-.5,0-.6,0-.6.4-1.4.4-2.1.6-.6.2-1.2.3-1.8.4-.5.1-1,.3-1.5.4-.1,0-.3,0-.5,0,0-.1,0-.3,0-.4,0-.4.2-.8.3-1.2.2-.6.3-1.1.5-1.7,0,0,0-.1,0-.2.1-.7.3-1.3.4-2,.3-1.1.5-2.2.8-3.3,0-.2.1-.4.2-.6,0-.3,0-.5-.5-.5-.9,0-1.8,0-2.7,0-.4,0-.5,0-.5.4,0,.8,0,1.6,0,2.4,0,2.3,0,4.7,0,7,0,.4,0,.5.5.5,5.1,0,10.3,0,15.4,0,.7,0,.7.2.7.7,0,.3,0,.6,0,.9,0,.1-.2.3-.4.3-.1,0-.3,0-.5,0-17.6,0-35.3,0-52.9,0s-.6,0-.6-.7c0-.2,0-.4,0-.7,0-.5.1-.6.6-.6,2.3,0,4.5,0,6.8,0q.5,0,.5-.5c0-5.5,0-10.9,0-16.4,0-.3,0-.6.4-.6.3,0,.7,0,1,0,.3,0,.3,0,.3-.3,0-3,0-6,0-9.1,0-1.4,0-2.7,0-4.1,0-.4.1-.6.5-.6,6.1,0,12.3,0,18.4,0,.5,0,.5,0,.5.5,0,.3,0,.5,0,.8,0,.3.1.5.5.5.8,0,1.7,0,2.5,0,.9,0,1.6.3,2.4.7.5.3,1,.6,1.4.9.4.4.8.9,1.1,1.3.3.5.5,1,.7,1.5,0,.2.1.5.2.7Zm-10.5,9.7c0-4.8,0-9.5,0-14.3,0-.4,0-.5-.5-.5-4.8,0-9.5,0-14.3,0-.1,0-.3,0-.4,0-.4,0-.5,0-.5.4,0,3.7,0,7.4,0,11.2,0,.4.2.5.6.5.5,0,1,0,1.4,0,.3,0,.6,0,.9,0,.5,0,1,0,1.5,0,.5,0,1,0,1.5,0,.4,0,.9,0,1.3,0,.4,0,.8,0,1.2,0,.5,0,1,0,1.5,0,.6,0,1.2,0,1.8,0,.4,0,.5.2.5.6,0,3.9,0,7.7,0,11.6,0,1.7,0,3.4,0,5,0,.3.2.3.4.3.8,0,1.7,0,2.5,0s.6,0,.6-.6v-14.2Zm-17.5,7c0,2.4,0,4.9,0,7.3,0,.4.1.5.5.5,3.7,0,7.4,0,11.1,0s.6,0,.6-.6c0,0,0-.1,0-.2,0-4.6,0-9.3,0-13.9,0-.1,0-.2,0-.3,0-.5,0-.5-.4-.5-3.7,0-7.3,0-11,0-.7,0-.7,0-.7.7v7.1Zm19.4-7.8c0,.2-.1.3,0,.5,0,.2,0,.4,0,.6,0,.8,0,1.5,0,2.3,0,.8,0,1.6,0,2.4,0,.4,0,.7,0,1.1,0,.5,0,1.1,0,1.6,0,.4,0,.9,0,1.3,0,.5,0,1,0,1.5,0,.4,0,.9,0,1.3,0,.4,0,.9,0,1.3,0,.4,0,.8,0,1.2,0,.3,0,.4.4.4,2,0,4.1,0,6.1,0,.3,0,.3-.1.3-.3,0-2.1,0-4.2,0-6.3,0-2.3,0-4.6,0-6.8,0-.3-.1-.3-.4-.3-.8,0-1.7,0-2.5,0-.6,0-1.2-.2-1.8-.4-.8-.3-1.5-.6-2.1-1.3Zm16.3,11.6c-.2-.1-.2-.2-.3-.3-.2-.2-.3-.4,0-.6.3-.3.5-.6.8-.8.8-.7,1.3-1.6,2-2.4,1-1.4,1.8-2.8,2.5-4.4.4-1,.8-2.1,1.1-3.2.3-.9.5-1.9.7-2.8.2-1.4.3-2.7.3-4.1,0-.9,0-1.8,0-2.7,0-1-.3-1.9-.5-2.8,0-.5-.3-.6-.7-.6-.3,0-.5,0-.8,0-.3,0-.3.2-.2.4,0,.2.2.3.2.5.1.8.3,1.7.4,2.5,0,1,.1,1.9.2,2.9,0,.5,0,1,0,1.5,0,.4,0,.7,0,1.1-.1.8-.2,1.6-.4,2.4,0,.4-.2.8-.3,1.2-.2.5-.3,1-.6,1.6-.4.9-.7,1.8-1.1,2.7-.3.7-.7,1.3-1.1,1.9-.7,1-1.5,2.1-2.2,3.1-.3.4-.7.7-1,1.1-.2.3-.4.3-.6,0-.2-.2-.4-.4-.6-.7,0,0-.2-.1-.3-.1,0,0-.1.1-.1.2-.2.7-.3,1.4-.5,2.2-.1.4-.3.9-.4,1.4,1.3-.3,2.6-.7,3.9-1Zm-16.4-20.2c0,0,0,.2,0,.3,0,.7,0,1.4,0,2.1,0,.7,0,.7.7.7,1.3,0,2.6,0,3.8.4.7.2,1.4.6,1.9,1.1,0,0,.2.1.2,0,0,0,.1-.2.1-.3,0-.8,0-1.6,0-2.3,0-.5,0-.5-.5-.5-1,0-2,0-3,0-.4,0-.8-.1-1.2-.3-.7-.3-1.3-.8-2-1.2Zm6.6,8.5c0-.1,0-.2,0-.3,0-.2-.2-.3-.2-.4-.5-1.3-1.5-2.2-2.8-2.5-1.1-.2-2.3,0-3.4,0,0,0,0,.3,0,.4.4.7.7,1.3,1.3,1.8.7.6,1.5.9,2.3,1,.9.1,1.9,0,2.8,0Zm7.1-8.7c-.6,0-1.2,0-1.9.2-.8.3-1.5.6-2,1.2-.4.5-.6,1-.9,1.5-.2.3,0,.4.2.4.8,0,1.6,0,2.4,0,.3,0,.7,0,1-.2.5-.2,1-.4,1.5-.8.7-.6,1.1-1.2,1.3-2,.1-.3,0-.3-.3-.3-.4,0-.8,0-1.3,0Zm-3.5,12.1s0,0,0,0c.5,0,1.1-.1,1.6-.1.7,0,1.3-.3,1.9-.7.7-.5,1.1-1.2,1.5-2,.2-.3,0-.4-.3-.4-.8,0-1.7,0-2.5,0-.9,0-1.7.4-2.3.9-.6.5-1,1.2-1.3,1.9-.1.2,0,.4.2.4.4,0,.8,0,1.2,0Zm-3.6-12.3c0,0,0-.2,0-.3-.3-.5-.5-1-.9-1.4-.7-1-1.8-1.5-3-1.5-.6,0-1.2,0-1.8,0-.9,0-.9,0-.6.8.6,1.2,1.5,2.1,2.8,2.3,1.1.2,2.2,0,3.4,0Z" fill="#fff" stroke-width="0"/>
      <path d="m372.6,151.2c-.6-.5-1.2-1-1.8-1.4-.6-.4-1.2-.7-1.7-1.1-.8-.4-1.6-.9-2.4-1.2-.8-.3-1.7-.6-2.6-.8-.6-.2-1.2-.3-1.7-.5-.3,0-.7-.1-1-.1-1.4,0-2.7-.1-4.1-.1-.9,0-1.8.1-2.7.2-.6,0-1.2.3-1.8.5,0,0-.1,0-.2,0-.6,0-1.1,0-1.7,0-.3,0-.4-.1-.4-.4,0-1.5,0-2.9,0-4.4,0-.4.4-.5.7-.6.7-.2,1.4-.4,2.1-.5.6-.1,1.1-.2,1.7-.3,1.6,0,3.2-.2,4.8-.1,1.1,0,2.1.2,3.2.4.6,0,1.1.2,1.7.3.9.3,1.8.6,2.7.8,1.2.3,2.4.9,3.5,1.4,1,.5,2,1.1,2.9,1.8.9.6,1.7,1.3,2.5,1.9.2.1.3.1.5,0,.3-.3.6-.7.9-1,.1-.1.3-.2.5-.2,0,0,.2.2.3.4.2.6.3,1.3.4,1.9.3,1.3.7,2.6,1,3.8.1.6.2,1.1.3,1.7.1.5.3,1,.4,1.4,0,.2,0,.4,0,.5,0,.1-.3.1-.5.1-.4,0-.9-.2-1.3-.3-.5-.2-1.1-.4-1.6-.5-.7-.2-1.4-.3-2-.4-.1,0-.2,0-.3-.1-.1,0-.2-.1-.3-.2-1-.2-2-.5-3.1-.7,0,0-.2,0-.2,0-.1,0-.4-.1-.4-.2,0-.2,0-.4.2-.5.5-.5,1-1,1.6-1.6Zm-14.3-8.7s0,0,0-.1c-.7,0-1.4,0-2,.1-1.2.1-2.4.3-3.6.5-.2,0-.4.1-.4.4,0,.3,0,.6,0,.9,0,.4,0,.5.5.4.8-.2,1.5-.4,2.3-.5,1.2-.1,2.4-.1,3.6-.2.8,0,1.6,0,2.4,0,.1,0,.2,0,.3,0,.8.2,1.5.3,2.3.5.6.1,1.2.3,1.8.5.5.1.9.4,1.4.5.7.3,1.3.5,2,.9.5.2.9.5,1.4.8.6.4,1.3.7,1.9,1.2,1,.7,1.9,1.5,2.8,2.3.3.2.3.4,0,.7-.2.2-.4.4-.6.6,0,0-.1.2-.1.3,0,0,.2.1.2.1.9.2,1.8.5,2.7.7.2,0,.4,0,.6,0,0,0,0-.3,0-.5-.2-.9-.4-1.8-.6-2.7,0-.3-.3-.4-.5-.2-.3.3-.5.1-.7,0-.4-.4-.8-.8-1.2-1.1-.8-.6-1.6-1.3-2.4-1.9-.7-.5-1.5-.9-2.2-1.3-1-.5-2-1.1-3.1-1.5-1.2-.4-2.4-.7-3.6-1-.8-.2-1.6-.4-2.4-.4-.9,0-1.9,0-2.9,0Z" fill="#fff" stroke-width="0"/>
      <path d="m338,149.6c-.4-.5-.8-.9-1.2-1.3,0-.1-.2-.3-.1-.4,0,0,.2-.2.3-.2.7-.2,1.4-.3,2-.4.9-.2,1.8-.5,2.8-.7.7-.2,1.3-.4,2-.5.7-.2,1.4-.3,2-.4,0,0,0,0,.1,0q.5-.1.5.4c0,0,0,.2,0,.2-.2.7-.4,1.3-.6,2-.1.6-.2,1.2-.3,1.7-.1.6-.3,1.2-.5,1.8,0,.2,0,.5-.1.7-.2.7-.4,1.3-.5,2,0,.2,0,.5-.1.7,0,.3-.2.3-.4.1-.2-.2-.4-.5-.6-.7-.3-.3-.6-.6-.9-.9-.2-.2-.4-.2-.5,0-.7,1-1.5,2-2.1,3.1-.6.9-1,2-1.4,3-.4,1.2-.8,2.4-1.1,3.6-.2.7-.2,1.4-.3,2.1,0,.6-.1,1.2-.2,1.8,0,.3,0,.6,0,.8,0,.7,0,1.4,0,2.1,0,.8.3,1.5.4,2.3,0,.5.2,1,.3,1.5,0,.3,0,.6,0,.9,0,.4-.2.7-.6.6-1.3,0-2.7,0-4,0-.4,0-.6,0-.7-.5,0-.7-.3-1.3-.4-2-.2-.8-.3-1.7-.4-2.5-.1-1-.2-2-.2-3.1,0-1.1.2-2.2.3-3.2,0-.8.2-1.6.3-2.3,0-.5.3-1,.4-1.5.3-.9.6-1.9.9-2.8.2-.6.5-1.1.8-1.7.4-.8.9-1.6,1.3-2.5.2-.4.4-.7.7-1,.7-.9,1.3-1.7,2-2.6,0,0,.1-.2.2-.2Zm5,2.2c0-.3.1-.4.1-.5.2-1,.5-2,.7-2.9,0-.2,0-.3-.2-.2-.4.1-.8.2-1.2.3-.7.1-1.3.3-2,.4-.2,0-.3.3-.1.4.4.2.2.4,0,.6-.3.3-.6.6-.8.9-.8,1-1.7,2-2.4,3.1-.7,1.1-1.4,2.4-1.9,3.6-.4.9-.8,1.9-1,2.8-.4,1.2-.7,2.4-.9,3.6-.2.9-.2,1.9-.2,2.8,0,1.4,0,2.8.1,4.3,0,0,0,.1,0,.2,0,.5.2,1,.3,1.4.2,1.1.2,1.1,1.3,1.1,0,0,.2,0,.3,0,.2,0,.3,0,.2-.3-.2-.9-.5-1.8-.4-2.8,0,0,0-.1,0-.2,0-.8-.3-1.6-.3-2.4,0-1,.1-2.1.2-3.1,0-.4,0-.8.1-1.2.2-.8.2-1.7.6-2.5.2-.4.2-.9.3-1.3.3-.7.6-1.4.9-2.1.5-1.3,1.3-2.5,2.1-3.7.4-.5.8-1.1,1.2-1.6.4-.5.9-1,1.4-1.6.2-.3.4-.3.7,0,.2.2.5.5.8.8Z" fill="#fff" stroke-width="0"/>
      <path d="m358.3,194.9h-26.6c-.6,0-.6,0-.6-.6,0-.3,0-.6,0-.9,0-.2.1-.3.4-.3.1,0,.2,0,.3,0h52.6c.1,0,.2,0,.3,0q.8,0,.8.8c0,1.2.1,1.1-1.1,1.1-8.7,0-17.4,0-26.1,0Z" fill="#fff" stroke-width="0"/>
      <path d="m355.8,166.7c1,0,.9,0,.9.9,0,1.1,0,1.1-1.1,1.1,0,0-.1,0-.2,0-.6,0-.8-.2-.7-.9,0-.2,0-.5,0-.7,0-.3.1-.5.5-.5.2,0,.4,0,.5,0Z" fill="#fff" stroke-width="0"/>
      <path d="m355.7,165.1c-.2,0-.4,0-.7,0-.3,0-.3-.2-.3-.4,0-.3,0-.6,0-.8,0-.6,0-.7.6-.7.3,0,.6,0,.9,0,.3,0,.5.2.5.5,0,.4,0,.7,0,1.1,0,.3-.1.4-.4.4-.2,0-.4,0-.6,0Z" fill="#fff" stroke-width="0"/>
      <path d="m347.8,167.7c0-1,0-1,.9-1q.9,0,.9.9c0,.2,0,.5,0,.7,0,.3-.1.4-.4.4-.3,0-.7,0-1,0-.3,0-.5-.1-.5-.5,0-.2,0-.4,0-.6Z" fill="#fff" stroke-width="0"/>
      <path d="m353.1,167.7c0,1.1.1,1-1,1-.1,0-.2,0-.3,0-.3,0-.5-.1-.5-.5,0-.3,0-.6,0-1,0-.4.2-.5.5-.5.3,0,.6,0,.9,0,.3,0,.5.1.4.5,0,.2,0,.4,0,.5Z" fill="#fff" stroke-width="0"/>
      <path d="m346.2,167.7c0,1,0,1.1-1.1,1-.1,0-.2,0-.3,0-.3,0-.5-.2-.5-.5,0-.3,0-.7,0-1,0-.3.2-.5.5-.5.3,0,.6,0,.9,0,.3,0,.5.1.5.5,0,.2,0,.3,0,.5Z" fill="#fff" stroke-width="0"/>
      <path d="m355.7,159.8c1.1,0,1,0,1,1q0,.9-.9.9c0,0-.2,0-.2,0q-.8,0-.8-.8s0,0,0,0c-.1-1.3.2-1,1-1Z" fill="#fff" stroke-width="0"/>
      <path d="m346.2,164.2c0,.9,0,.9-.9.9-1,0-.9,0-.9-.9,0-1.1-.1-1,1-1q.9,0,.9,1Z" fill="#fff" stroke-width="0"/>
      <path d="m349.6,164.2q0,.9-1,.9c-.9,0-.9,0-.9-.9,0-1.2,0-1,1-1,.9,0,.8,0,.8,1Z" fill="#fff" stroke-width="0"/>
      <path d="m353.1,164.2c0,.9,0,.9-.9.9-.9,0-1,.2-1-1,0-.1,0-.3,0-.4,0-.4.2-.5.5-.5.3,0,.6,0,.9,0,.3,0,.4.1.4.4,0,.2,0,.4,0,.7Z" fill="#fff" stroke-width="0"/>
      <path d="m344.3,160.7c0-1,0-.9.9-.9.2,0,.5,0,.7,0,.3,0,.3.2.3.4,0,.3,0,.7,0,1,0,.3-.1.4-.4.4-.4,0-.7,0-1.1,0-.2,0-.4-.1-.4-.4,0-.2,0-.4,0-.5Z" fill="#fff" stroke-width="0"/>
      <path d="m349.6,160.7c0,1,0,.9-.9.9-1.1,0-.9-.1-.9-.9,0-1.2,0-1,1-1,1,0,.9,0,.9.9Z" fill="#fff" stroke-width="0"/>
      <path d="m351.3,160.7c0-.9,0-.9.9-.9,1.1,0,1,0,1,1q0,.9-.9.9t-1-1Z" fill="#fff" stroke-width="0"/>
      <path d="m342.5,178.2c0-.1,0-.2,0-.3,0-.6,0-.6.5-.6.3,0,.7,0,1,0,.3,0,.4.1.4.4,0,.4,0,.8,0,1.2,0,.3-.1.4-.4.4-.4,0-.7,0-1.1,0-.4,0-.5-.1-.5-.5,0-.2,0-.3,0-.5Z" fill="#fff" stroke-width="0"/>
      <path d="m351.4,178.2q0,1-1,1h-.2c-.7,0-.7,0-.7-.7,0-.2,0-.4,0-.6,0-.5,0-.6.6-.6.3,0,.6,0,1,0,.3,0,.4.2.4.5,0,.2,0,.3,0,.5Z" fill="#fff" stroke-width="0"/>
      <path d="m347.9,178.2c0,.8.2,1-.9.9-1,0-1,0-1-1s0-.2,0-.3c0-.5.3-.7.8-.6.2,0,.5,0,.7,0,.4,0,.4.2.4.5,0,.2,0,.3,0,.5Z" fill="#fff" stroke-width="0"/>
      <path d="m342.5,185.2c0-.1,0-.3,0-.4,0-.4.2-.5.5-.5.4,0,.7,0,1.1,0,.1,0,.3.2.3.3,0,.4,0,.8,0,1.2,0,.1-.2.3-.4.3-.4,0-.7,0-1.1,0-.3,0-.5-.1-.5-.5,0-.2,0-.3,0-.5Z" fill="#fff" stroke-width="0"/>
      <path d="m346.9,186.2c-1,0-1,0-1-1,0-.9,0-1,1-1,.9,0,1.1-.1,1,1,0,.2,0,.3,0,.5q0,.5-.5.5c-.2,0-.3,0-.5,0Z" fill="#fff" stroke-width="0"/>
      <path d="m350.4,186.2c-1,0-1,0-1-1,0-.1,0-.3,0-.4,0-.5.1-.6.6-.6.3,0,.5,0,.8,0,.4,0,.5.2.5.5,0,.3,0,.6,0,.9,0,.4-.1.5-.5.5-.2,0-.3,0-.5,0Z" fill="#fff" stroke-width="0"/>
      <path d="m347,182.7c-1,0-1,0-1-1,0-.1,0-.3,0-.4,0-.4.3-.6.7-.5.2,0,.4,0,.6,0,.5,0,.8.2.7.7,0,.2,0,.5,0,.7,0,.5,0,.5-.5.5-.1,0-.3,0-.4,0Z" fill="#fff" stroke-width="0"/>
      <path d="m351.4,181.7c0,.9.1,1-1,1-1,0-1,0-1-1h0q0-1,.9-.9c0,0,.2,0,.2,0,.8,0,.8,0,.8.8v.2Z" fill="#fff" stroke-width="0"/>
      <path d="m344.4,181.7q0,.9-1,.9c0,0-.1,0-.2,0-.7,0-.9-.1-.8-.8,0-.2,0-.4,0-.6,0-.3.2-.5.4-.5.3,0,.7,0,1,0,.4,0,.6.2.5.6,0,.1,0,.2,0,.3Z" fill="#fff" stroke-width="0"/>
      <path d="m343.5,173.8c1.1,0,.9,0,1,1,0,0,0,.1,0,.2,0,.4,0,.7-.5.7-.4,0-.8,0-1.2,0,0,0-.2-.2-.2-.3,0-.4,0-.7,0-1.1,0-.1.3-.3.4-.3.2,0,.4,0,.6,0Z" fill="#fff" stroke-width="0"/>
      <path d="m347,173.8c1.2,0,1,0,1,1,0,0,0,.1,0,.2,0,.7,0,.8-.8.7-.3,0-.6,0-.9,0-.1,0-.3-.2-.3-.3,0-.3,0-.6,0-1,0-.4.2-.4.5-.5.2,0,.3,0,.5,0Z" fill="#fff" stroke-width="0"/>
      <path d="m351.4,174.6q0,.9-1,.9c-.1,0-.2,0-.3,0-.6,0-.6,0-.6-.8,0-1.1,0-1.1,1.1-1.1,0,0,.2,0,.2,0,.6,0,.7.2.6.6,0,0,0,.2,0,.3Z" fill="#fff" stroke-width="0"/>
    </g>
    <g>
      <path d="m309.8,109.2c-.4,0-.8,0-1.2,0-.4,0-.7-.1-.9-.2-.1,0-.2-.1-.2-.3v-.4c.3,0,.6,0,1,.2.4,0,.8,0,1.3,0s.8,0,1-.1c.3,0,.5-.2.6-.4.2-.2.3-.3.3-.6,0-.2,0-.5,0-.8s0-.5-.1-.7c0-.2-.2-.4-.4-.5-.2-.1-.4-.3-.7-.4-.3-.1-.6-.2-1-.4-.3-.1-.7-.2-.9-.3-.3-.1-.5-.3-.7-.4-.2-.2-.4-.4-.5-.7-.1-.3-.2-.6-.2-1s0-.7.1-.9c0-.3.3-.5.5-.7.2-.2.5-.4.9-.5.4-.1.8-.2,1.3-.2s.3,0,.5,0,.4,0,.6,0c.2,0,.4,0,.5,0,.2,0,.3,0,.4,0,.1,0,.2.1.2.3v.4c-.3,0-.6,0-1-.1-.4,0-.8,0-1.1,0-.8,0-1.3.1-1.6.4-.3.3-.4.7-.4,1.2s0,.5.1.7c0,.2.2.4.3.5.2.1.4.2.6.3.2,0,.5.2.9.3.5.1.8.3,1.2.4.3.1.6.3.8.5.2.2.4.4.5.7,0,.3.1.6.1,1,0,.8-.2,1.5-.7,1.9-.5.4-1.2.6-2.2.6Z" fill="#000100" stroke-width="0"/>
      <path d="m318.4,108.4c0,0-.2.2-.3.3-.1.1-.3.2-.5.3-.2,0-.4.2-.6.2-.2,0-.5,0-.7,0-.6,0-1.1-.2-1.5-.5-.4-.4-.6-.9-.6-1.7v-4.4h.5c.1,0,.2,0,.2.2v4.2c0,.6.1,1,.4,1.3.3.3.6.4,1.1.4s.5,0,.7,0c.2,0,.4-.1.6-.2.2,0,.3-.2.4-.3.1-.1.2-.2.3-.3v-5.1h.5c.1,0,.2,0,.2.2v6.3h-.5c-.1,0-.2,0-.2-.2v-.5Z" fill="#000100" stroke-width="0"/>
      <path d="m320.8,109c-.1,0-.2-.1-.2-.2v-.4c.2,0,.5,0,.8.1.3,0,.7,0,1,0s.7,0,.9,0c.2,0,.4-.1.5-.2.1-.1.2-.2.3-.4,0-.1,0-.3,0-.5s0-.4-.1-.6c0-.1-.2-.3-.3-.4-.1,0-.3-.2-.6-.2-.2,0-.5-.1-.8-.2-.3,0-.5-.1-.7-.2-.2,0-.4-.2-.6-.3-.2-.1-.3-.3-.4-.5,0-.2-.1-.5-.1-.8,0-.6.2-1,.5-1.3.4-.3.9-.5,1.7-.5s.2,0,.3,0c.2,0,.3,0,.5,0,.2,0,.3,0,.5,0,.2,0,.3,0,.4,0,.1,0,.2.1.2.2v.4c-.3,0-.6,0-.9-.1-.3,0-.6,0-.9,0s-.6,0-.8,0c-.2,0-.4.1-.5.2-.1,0-.2.2-.3.3,0,.1,0,.3,0,.5s0,.4,0,.5c0,.1.1.2.3.3.1,0,.3.2.5.2.2,0,.5.1.7.2.3,0,.6.1.8.2.3,0,.5.2.7.3.2.1.3.3.4.5s.2.5.2.9c0,.7-.2,1.2-.6,1.4-.4.3-1,.4-1.7.4s-.2,0-.4,0c-.2,0-.4,0-.5,0-.2,0-.4,0-.5,0-.2,0-.3,0-.4-.1Z" fill="#000100" stroke-width="0"/>
      <path d="m328.9,108.6c.1,0,.2,0,.2,0,0,0,0,0,0,.1v.4c-.3,0-.6.1-.9.1s-.5,0-.7,0c-.2,0-.3-.2-.5-.3-.1-.1-.2-.3-.2-.4,0-.2,0-.3,0-.5v-4.7h-.6c-.1,0-.2,0-.2-.2v-.4h.8v-1.8h.5c.1,0,.2,0,.2.2v1.6h1.5c.1,0,.2,0,.2.2v.4h-1.7v4.6c0,.1,0,.2,0,.3,0,0,0,.2.1.2,0,0,.2.1.3.2.1,0,.3,0,.5,0s.2,0,.3,0c0,0,.2,0,.2,0Z" fill="#000100" stroke-width="0"/>
      <path d="m334.5,108.4c-.1.1-.2.2-.4.3-.1,0-.3.2-.5.3-.2,0-.4.1-.6.2-.2,0-.4,0-.6,0-.7,0-1.2-.2-1.6-.5-.3-.4-.5-.9-.5-1.5s.2-1.3.6-1.6c.4-.3,1-.5,1.8-.5h1.7v-.5c0-.3,0-.5,0-.7,0-.2-.2-.4-.3-.5-.1-.1-.3-.2-.6-.3s-.5,0-.9,0-.8,0-1.1,0-.5,0-.6,0-.2,0-.2-.2v-.3c.3,0,.7-.2,1.1-.2.4,0,.7,0,1,0,.5,0,.9,0,1.2.2.3.1.6.3.7.5.2.2.3.4.4.7,0,.3.1.6.1.9v4.5h-.5c-.1,0-.2,0-.2-.2v-.5Zm0-2.7h-1.7c-.3,0-.6,0-.8.1-.2,0-.4.2-.5.3-.1.1-.2.3-.3.5,0,.2,0,.4,0,.6,0,.5.1.9.4,1.1.3.2.6.3,1.1.3s.8,0,1.2-.3c.3-.2.6-.4.8-.6v-2Z" fill="#000100" stroke-width="0"/>
      <path d="m337.3,101.3c-.2,0-.3,0-.4-.1,0,0-.1-.2-.1-.4s0-.3.1-.4c0,0,.2-.1.4-.1s.3,0,.4.1c0,0,.1.2.1.4s0,.3-.1.4c0,0-.2.1-.4.1Zm-.4,1.3h.5c.1,0,.2,0,.2.2v6.3h-.5c-.1,0-.2,0-.2-.2v-6.3Z" fill="#000100" stroke-width="0"/>
      <path d="m340.1,103.3c0,0,.2-.2.3-.3.1-.1.3-.2.5-.3.2,0,.4-.2.6-.2.2,0,.5,0,.7,0,.6,0,1.1.2,1.5.5.4.4.6.9.6,1.7v4.4h-.5c-.1,0-.2,0-.2-.2v-4.2c0-.6-.1-1-.4-1.3-.3-.3-.6-.4-1.1-.4s-.5,0-.7,0c-.2,0-.4.1-.6.2-.2,0-.3.2-.4.3s-.2.2-.3.3v5.1h-.5c-.1,0-.2,0-.2-.2v-6.3h.5c.1,0,.2,0,.2.2v.5Z" fill="#000100" stroke-width="0"/>
      <path d="m349.9,108.4c-.1.1-.2.2-.4.3s-.3.2-.5.3c-.2,0-.4.1-.6.2-.2,0-.4,0-.6,0-.7,0-1.2-.2-1.6-.5-.3-.4-.5-.9-.5-1.5s.2-1.3.6-1.6c.4-.3,1-.5,1.8-.5h1.7v-.5c0-.3,0-.5,0-.7,0-.2-.2-.4-.3-.5-.1-.1-.3-.2-.6-.3s-.5,0-.9,0-.8,0-1.1,0c-.3,0-.5,0-.6,0s-.2,0-.2-.2v-.3c.3,0,.7-.2,1.1-.2.4,0,.7,0,1,0,.5,0,.9,0,1.2.2.3.1.6.3.7.5.2.2.3.4.4.7,0,.3.1.6.1.9v4.5h-.5c-.1,0-.2,0-.2-.2v-.5Zm0-2.7h-1.7c-.3,0-.6,0-.8.1-.2,0-.4.2-.5.3-.1.1-.2.3-.3.5,0,.2,0,.4,0,.6,0,.5.1.9.4,1.1.3.2.6.3,1.1.3s.8,0,1.2-.3c.3-.2.6-.4.8-.6v-2Z" fill="#000100" stroke-width="0"/>
      <path d="m353.1,103c.2-.2.5-.3.8-.4s.7-.2,1.1-.2c.8,0,1.4.3,1.8.8.4.6.6,1.4.6,2.5s0,1.2-.2,1.6c-.1.4-.3.8-.5,1.1-.2.3-.5.5-.8.6-.3.1-.7.2-1.2.2s-.4,0-.6,0c-.2,0-.4,0-.6,0-.2,0-.4,0-.5-.1-.2,0-.3,0-.4-.1-.1,0-.2,0-.2-.1,0,0,0-.1,0-.2v-8.8h.4c.1,0,.2,0,.3,0,0,0,0,.1,0,.3v2.9Zm0,5.4c.2,0,.5,0,.7.1.3,0,.5,0,.8,0s.7,0,.9-.1c.3,0,.5-.2.6-.4.2-.2.3-.5.4-.9,0-.4.1-.8.1-1.4,0-1-.1-1.7-.4-2.1-.3-.4-.7-.6-1.3-.6s-.8,0-1,.2c-.3.1-.5.3-.8.4v4.7Z" fill="#000100" stroke-width="0"/>
      <path d="m360.8,109.1c0,0-.2,0-.3,0-.1,0-.3,0-.4,0-.4,0-.6-.1-.8-.3-.2-.2-.3-.5-.3-.9v-8.2h.5c.1,0,.2,0,.2.2v8c0,.3,0,.4.1.5,0,0,.3,0,.5,0h.3c0,0,.1,0,.1,0,0,0,0,0,0,.1v.4Z" fill="#000100" stroke-width="0"/>
      <path d="m364.7,109.2c-.5,0-.9,0-1.3-.2-.4-.1-.6-.3-.9-.6-.2-.3-.4-.6-.5-1-.1-.4-.2-1-.2-1.6s0-1.2.2-1.6c.1-.4.3-.8.5-1.1.2-.3.5-.5.8-.6.3-.1.7-.2,1.1-.2s.9,0,1.2.2c.3.1.5.3.7.6.2.2.3.5.4.9,0,.3,0,.7,0,1.1s0,.3,0,.5c0,.2,0,.3,0,.4h-4.1c0,.4,0,.8.1,1.1,0,.3.2.6.3.8.2.2.4.3.7.4.3,0,.6.1,1.1.1s.8,0,1,0c.3,0,.4,0,.5,0s.1,0,.2,0c0,0,0,0,0,.1v.3c-.2,0-.5.1-.8.2-.3,0-.7,0-1.1,0Zm-.2-6.2c-.4,0-.7,0-.9.2s-.4.3-.6.5c-.1.2-.2.5-.3.8,0,.3,0,.6-.1,1h3.5c0,0,0-.1,0-.2v-.2c0-.3,0-.7,0-.9,0-.3-.1-.5-.2-.7-.1-.2-.3-.3-.5-.4-.2,0-.5-.1-.8-.1Z" fill="#000100" stroke-width="0"/>
    </g>
  </g>
  <g id="Layer_6" class="image" data-name="Layer 6">
    <path d="m504.5,156l-41.5-41.5h-55.5l-15.5,15.5,24.4,24.4c9.1,9.1,9.1,23.8,0,32.9l-24.4,24.4,9.2,9.2h68.1l35.2-35.2c8.2-8.2,8.2-21.5,0-29.7Z" stroke-width="0"/>
    <g>
      <path d="m471.2,158.6c.7,0,1.4.1,2.1.2.2,0,.3,0,.5,0,1.1.1,2.1.2,3.2.3.6,0,1.2.1,1.8.2.4,0,.7.1,1.1.2.3,0,.6.2.7.6.2.8.5,1.5.7,2.3.5,1.7.9,3.4,1.4,5,.3,1.2.7,2.3,1,3.5.3.9.5,1.8.7,2.7.3,1.2.7,2.3,1,3.5,0,.3.2.7.3,1,0,.1,0,.3-.2.4-.4.4-.8.8-1.1,1.2-.3.3-.5.3-.8,0-.9-.9-1.7-1.7-2.6-2.5-.8-.7-1.8-1-2.9-.6-1.4.5-2,1.5-2.2,2.9,0,.3-.2.4-.5.4-1.2,0-2,.7-2.5,1.7-.2.3-.2.6-.2,1,0,.4-.3.6-.6.6-1.6.1-2.5,1.2-2.8,2.6-.1.8-.2.8-.9.8-1.1,0-2.5,1.5-2.4,2.5,0,.6-.1,1.3.3,1.8.5.6,1,1.2,1.5,1.8.5.6,1.1,1.1,1.6,1.7,0,0,0,.3,0,.4-.5.4-.9.8-1.4,1.2-.7.5-1.5.6-2.3.3-1.4-.4-2-1.4-2.2-2.6-.1-.8.3-1.5.8-2.2.2-.2.4-.4.2-.8-.3-.5-.7-.6-1.2-.2-.5.5-1,1-1.5,1.5-.6.6-1.1,1.1-1.7,1.7-.9.9-1.9,1.3-3.2.8-1.7-.7-2.2-2.2-1.8-3.7.1-.4.4-.8.7-1.1,1.6-1.7,3.3-3.3,5-5,.2-.2.3-.3.5-.5.2-.2.2-.5,0-.8-.2-.2-.4-.6-.8-.3-.4.3-.8.7-1.2,1.1-1.4,1.4-2.8,2.8-4.2,4.2-.6.6-1.2,1.3-1.9,1.9-1.3,1.1-3.4.7-4.3-.7-.5-.9-.6-1.9-.2-2.8.2-.4.5-.7.7-1,2-2,3.9-3.9,5.9-5.9.2-.2.4-.4.6-.6.3-.3.3-.7,0-1-.3-.3-.7-.2-1,0-.2.2-.4.4-.6.6-1.6,1.6-3.2,3.2-4.8,4.7-.5.4-.9.8-1.6,1-1.3.2-2.5-.3-3.2-1.4-.7-1.2-.4-2.6.5-3.5.8-.8,1.7-1.7,2.5-2.5,1.2-1.2,2.4-2.4,3.7-3.7,1.8-1.8,3.5-3.5,5.3-5.3.6-.6,1.1-1.1,1.7-1.7.8-.8,1.8-1.3,2.9-1.3.7,0,1.5.1,2.1.7.8.8,1.6,1.6,2.4,2.4.6.6,1.2,1.3,1.8,1.9.5.5.9,1,1.4,1.4.6.5,1.4.7,2.2.8.9,0,1.6,0,2.4-.4.8-.4,1.5-.9,2-1.7.6-.8.8-1.6.8-2.5,0-.8-.2-1.7-.6-2.4-.5-.9-1.1-1.9-1.7-2.7-.5-.7-1.1-1.4-1.6-2.1-.4-.4-.8-.8-1.2-1.2-.1-.1-.2-.3-.3-.5,0,0,0,0,0-.1Z" fill="#fff" stroke-width="0"/>
      <path d="m475.2,167.6c-.1,1.4-1,2.8-2.8,3.3-1.1.3-2.1-.1-2.9-.8-1-.9-1.9-2-2.9-3-.8-.8-1.5-1.8-2.5-2.4-1.1-.7-2.3-.9-3.6-.7-1.2.2-2.2.8-3.1,1.6-4.3,4.3-8.6,8.6-12.8,12.8-.8.8-1.3,1.6-1.4,2.7,0,.3-.2.4-.5.3-.7-.2-1.5-.4-2.2-.7-.7-.3-1.4-.7-2.1-1-.4-.2-.5-.5-.4-.9.3-1,.6-1.9.8-2.9.2-.8.4-1.7.7-2.5.2-.6.4-1.1.6-1.7.2-.6.3-1.1.4-1.7.1-.5.3-.9.4-1.3.4-1.3.7-2.7,1.1-4,.3-.9.6-1.8.9-2.8.2-.5.3-1,.4-1.5,0-.4.3-.5.6-.3.5.3,1,.6,1.6.9.7.4,1.4.8,2.2.7.5,0,1.1-.3,1.6-.6,1.1-.5,2.1-1.2,3.3-1.7,1.1-.5,2.2-.7,3.3-1.2,1.3-.5,2.7-.8,4.1-1.1,1.2-.2,2.5-.4,3.7-.1.8.2,1.7.2,2.4.5.9.4,1.9.9,2.7,1.5.9.6,1.7,1.3,2.4,2,.9,1,1.7,2.1,2.5,3.2.4.6.8,1.2,1.1,1.9.2.5.3,1,.5,1.5Z" fill="#fff" stroke-width="0"/>
      <path d="m430.1,177.7c0-1.1,0-2.3,0-3.4,0-1.2,0-2.5,0-3.7,0-2.5,0-4.9,0-7.4,0-1.5,0-2.9,0-4.4,0-1,0-1.9,0-2.9,0-.6,0-1.2,0-1.8,0-.5.2-.6.7-.5,1,.3,2,.5,3,.7.7.1,1.3.3,2,.5.8.2,1.7.4,2.5.6.6.1,1.2.3,1.8.5.5.1.9.2,1.4.4.6.2.9.9.7,1.5-.4,1.3-.8,2.7-1.2,4.1-.2.8-.5,1.5-.7,2.3-.2.6-.3,1.2-.5,1.8-.1.4-.2.8-.4,1.2-.5,1.8-1,3.5-1.5,5.3-.2.5-.4,1.1-.5,1.6-.2.6-.3,1.1-.5,1.7-.4,1.4-.8,2.9-1.3,4.3,0,.2-.2.5-.3.7-.3.7-1.2.6-1.7.4-.8-.4-1.6-.7-2.4-1-.5-.2-1-.4-1.6-.7-.1,0-.2-.3-.2-.4,0-.4,0-.9,0-1.3h0Z" fill="#fff" stroke-width="0"/>
      <path d="m493.7,154.7c0,1.2,0,2.3,0,3.5,0,1.1,0,2.1,0,3.2,0,2.8,0,5.6,0,8.4,0,1.3,0,2.6,0,3.9,0,1.7.1,3.4.2,5,0,.3,0,.6-.4.7-1,.4-2,.9-3.1,1.4-.4.2-.8.3-1.3.4-.6.1-1.1-.2-1.3-.9-.4-1.2-.7-2.3-1-3.5-.2-.8-.5-1.5-.7-2.3-.5-1.8-1-3.6-1.5-5.4-.2-.7-.4-1.3-.6-2-.2-.6-.3-1.2-.5-1.8-.4-1.5-.9-2.9-1.3-4.4-.3-1-.5-2.1-.8-3.1-.1-.4-.3-.7,0-1.1.3-.5.9-.6,1.4-.8.2,0,.5-.1.7-.2.4,0,.8-.2,1.3-.3,2.1-.5,4.3-1,6.4-1.5.6-.1,1.2-.3,1.8-.5.3,0,.5.1.5.4,0,.3,0,.5,0,.8,0,0,0,0,0,0Z" fill="#fff" stroke-width="0"/>
      <path d="m462,157.1c-5.1,0-9.1-4.1-9.1-9.1,0-4.9,3.9-9.1,9.2-9,5,0,9,4,8.9,9.3,0,4.7-3.8,8.8-9.1,8.8Zm-4.7-9.3c-.2.1-.4.2-.6.4-.2.3-.2.6,0,.8.9,1,1.9,1.9,2.9,2.9.4.4.7.3,1,0,.7-.6,1.3-1.3,2-1.9,1.4-1.4,2.8-2.8,4.2-4.2.2-.2.3-.4.5-.6.2-.3.2-.6,0-.9-.2-.2-.5-.4-.8,0-.5.5-1,1-1.6,1.5-.8.8-1.6,1.6-2.4,2.4-.6.6-1.3,1.3-1.9,1.9-.3.3-.6.3-.8,0-.6-.6-1.3-1.3-1.9-1.9-.1-.1-.3-.2-.6-.4Z" fill="#fff" stroke-width="0"/>
      <path d="m477.4,192.9c-.5,0-.9-.2-1.2-.5-1.6-1.5-3.1-3.1-4.6-4.6-.3-.3-.6-.7-.7-1.2-.2-.7.4-1.8,1.4-1.9.7,0,1.2.2,1.6.6,1.5,1.6,3.1,3.1,4.6,4.6.5.5.7,1.1.5,1.9-.2.7-.8,1.1-1.6,1.1Z" fill="#fff" stroke-width="0"/>
      <path d="m474.2,182.9c-.2-1.1,1.4-2.1,2.1-1.7.5.3.9.6,1.3,1,.7.6,1.3,1.2,1.9,1.9.6.7,1.3,1.2,1.7,2,.3.7,0,1.5-.5,1.9-.9.6-1.7.4-2.4-.3-.7-.7-1.4-1.4-2.1-2.1-.5-.5-1.1-1.1-1.6-1.7-.3-.3-.4-.5-.4-1Z" fill="#fff" stroke-width="0"/>
      <path d="m474.3,193c0,.8-.4,1.4-1,1.7-.7.3-1.4,0-1.9-.5-1.2-1.1-2.3-2.3-3.4-3.4-.5-.5-.8-1.1-.4-1.8.3-.7,1-1.2,1.6-1.1.4,0,.8.3,1.1.5,1,.9,1.9,1.9,2.8,2.8s.5.5.8.8c.3.3.5.6.4,1Z" fill="#fff" stroke-width="0"/>
      <path d="m483.7,182.3c0,1.2-.8,1.6-1.7,1.7-.4,0-.9-.2-1.2-.5-1-.9-1.9-1.8-2.8-2.7-.5-.5-.7-1-.5-1.7.2-.7.8-1.2,1.5-1.3.5,0,1,.2,1.3.6,1,1,2,2,2.9,3,.2.2.3.6.4.9Z" fill="#fff" stroke-width="0"/>
      <path d="m447.2,142.5c.1,0,.3,0,.4.1.5.2.9.5,1.4.8.4.2.4.6.2,1-.2.4-.6.6-.9.4-.6-.3-1.1-.6-1.6-.9-.3-.2-.4-.5-.3-.8.1-.3.4-.6.8-.6Z" fill="#fff" stroke-width="0"/>
      <path d="m476.9,142.5c.4,0,.6.3.8.6.1.3,0,.6-.2.7-.6.4-1.2.8-1.8,1-.2,0-.6-.2-.7-.4-.1-.2-.2-.7,0-.8.6-.5,1.2-.9,2-1.1Z" fill="#fff" stroke-width="0"/>
      <path d="m447.1,147.2c.2,0,.4,0,.6,0,.5,0,.9.4.9.8,0,.4-.4.9-.9.9-.4,0-.9,0-1.3,0-.2,0-.4,0-.6-.2-.2-.2-.4-.5-.4-.7,0-.4.4-.7.8-.7.2,0,.5,0,.7,0Z" fill="#fff" stroke-width="0"/>
      <path d="m477,147.2c.2,0,.3,0,.5,0,.6,0,1.1.4,1.1.8,0,.4-.5.9-1,.9-.4,0-.8,0-1.2,0-.5,0-.9-.4-.9-.9,0-.4.4-.8,1-.8.2,0,.4,0,.6,0Z" fill="#fff" stroke-width="0"/>
      <path d="m449.4,152.1c-.2.3-.4.5-.7.7-.4.3-.8.5-1.2.7s-.9,0-1.1-.4c-.2-.4,0-.8.4-1.1.4-.2.7-.5,1.1-.6.3-.1.7,0,1.1,0,.2,0,.3.4.4.7Z" fill="#fff" stroke-width="0"/>
      <path d="m475.7,151.2c.5.2.9.5,1.4.7,0,0,.2.1.3.2.4.2.6.7.3,1.1-.2.5-.6.6-1.1.4-.4-.2-.8-.4-1.2-.7-.5-.3-.7-.9-.4-1.2.2-.2.4-.3.7-.4Z" fill="#fff" stroke-width="0"/>
    </g>
    <g>
      <path d="m399.9,236.4c-.1,0-.2,0-.2-.2v-8.1h-2.4c-.1,0-.2,0-.2-.2v-.5h5.7c.1,0,.2,0,.2.2v.5h-2.6v8.3h-.6Z" fill="#000100" stroke-width="0"/>
      <path d="m407,229.8c.2,0,.3,0,.3,0,0,0,0,0,0,.2v.5c0,0-.1,0-.2,0h-.2c-.4,0-.8,0-1.1.2-.3.2-.6.4-.9.8v4.9h-.5c-.1,0-.2,0-.2-.2v-6.3h.5c.1,0,.2,0,.2.2v.7c.1-.1.2-.2.4-.3.1-.1.3-.2.5-.3.2,0,.4-.2.5-.2.2,0,.4,0,.6,0Z" fill="#000100" stroke-width="0"/>
      <path d="m412.8,235.7c0,0-.2.2-.3.3-.1.1-.3.2-.5.3-.2,0-.4.2-.6.2-.2,0-.5,0-.7,0-.6,0-1.1-.2-1.5-.5-.4-.4-.6-.9-.6-1.7v-4.4h.5c.1,0,.2,0,.2.2v4.2c0,.6.1,1,.4,1.3.3.3.6.4,1.1.4s.5,0,.7,0c.2,0,.4-.1.6-.2.2,0,.3-.2.4-.3.1-.1.2-.2.3-.3v-5.1h.5c.1,0,.2,0,.2.2v6.3h-.5c-.1,0-.2,0-.2-.2v-.5Z" fill="#000100" stroke-width="0"/>
      <path d="m415.2,236.3c-.1,0-.2-.1-.2-.2v-.4c.2,0,.5,0,.8.1.3,0,.7,0,1,0s.7,0,.9,0c.2,0,.4-.1.5-.2.1-.1.2-.2.3-.4,0-.1,0-.3,0-.5s0-.4-.1-.6c0-.1-.2-.3-.3-.4-.1,0-.3-.2-.6-.2-.2,0-.5-.1-.8-.2-.3,0-.5-.1-.7-.2-.2,0-.4-.2-.6-.3-.2-.1-.3-.3-.4-.5,0-.2-.1-.5-.1-.8,0-.6.2-1,.5-1.3.4-.3.9-.5,1.7-.5s.2,0,.3,0,.3,0,.5,0c.2,0,.3,0,.5,0,.2,0,.3,0,.4,0,.1,0,.2.1.2.2v.4c-.3,0-.6,0-.9-.1-.3,0-.6,0-.9,0s-.6,0-.8,0c-.2,0-.4.1-.5.2-.1,0-.2.2-.3.3,0,.1,0,.3,0,.5s0,.4,0,.5c0,.1.1.2.3.3.1,0,.3.2.5.2.2,0,.5.1.7.2.3,0,.6.1.8.2.3,0,.5.2.7.3.2.1.3.3.4.5.1.2.2.5.2.9,0,.7-.2,1.2-.6,1.4-.4.3-1,.4-1.7.4s-.2,0-.4,0c-.2,0-.4,0-.5,0-.2,0-.4,0-.5,0-.2,0-.3,0-.4-.1Z" fill="#000100" stroke-width="0"/>
      <path d="m423.3,235.8c.1,0,.2,0,.2,0,0,0,0,0,0,.1v.4c-.3,0-.6.1-.9.1s-.5,0-.7,0c-.2,0-.3-.2-.5-.3-.1-.1-.2-.3-.2-.4,0-.2,0-.3,0-.5v-4.7h-.6c-.1,0-.2,0-.2-.2v-.4h.8v-1.8h.5c.1,0,.2,0,.2.2v1.6h1.5c.1,0,.2,0,.2.2v.4h-1.7v4.6c0,.1,0,.2,0,.3,0,0,0,.2.1.2,0,0,.2.1.3.2.1,0,.3,0,.5,0s.2,0,.3,0c0,0,.2,0,.2,0Z" fill="#000100" stroke-width="0"/>
      <path d="m432.5,229.8c0,0,.1,0,.2,0,0,0,0,0,0,.1,0,.5-.1,1-.3,1.6s-.3,1.1-.4,1.7c-.2.6-.3,1.1-.5,1.6-.2.5-.4,1-.6,1.5h-.6c0,0-.1,0-.2,0,0,0,0,0,0-.2l-1.4-4.9-1.5,5.1h-.6c0,0-.1,0-.2,0,0,0,0,0-.1-.2-.2-.5-.4-1-.6-1.5-.2-.5-.4-1.1-.5-1.6-.1-.6-.3-1.1-.4-1.6-.1-.5-.2-1-.2-1.5h.6c.1,0,.2,0,.2.2,0,.4.1.9.2,1.4,0,.5.2,1,.3,1.4.1.5.3,1,.4,1.4.1.5.3.9.5,1.3l1.5-5.2h.6c0,0,.2,0,.2.2l1.5,5c.2-.4.3-.9.5-1.4.1-.5.3-1,.4-1.5.1-.5.2-1,.3-1.5,0-.5.2-1,.2-1.4h.5Z" fill="#000100" stroke-width="0"/>
      <path d="m436.4,229.7c.9,0,1.6.3,2,.8s.6,1.4.6,2.6-.2,2-.6,2.6c-.4.6-1.1.8-2,.8s-1.6-.3-2-.8c-.4-.6-.6-1.4-.6-2.6s.2-2,.6-2.6,1.1-.8,2-.8Zm0,6.2c.3,0,.6,0,.8-.1.2,0,.4-.3.6-.5.2-.2.3-.5.4-.9,0-.4.1-.8.1-1.3s0-.9-.1-1.3c0-.4-.2-.6-.4-.9-.2-.2-.4-.4-.6-.5-.2,0-.5-.1-.8-.1s-.6,0-.8.1c-.2,0-.4.3-.6.5-.2.2-.3.5-.4.9,0,.4-.1.8-.1,1.3s0,.9.1,1.3c0,.4.2.6.4.9.2.2.4.4.6.5.2,0,.5.1.8.1Z" fill="#000100" stroke-width="0"/>
      <path d="m443.3,229.8c.2,0,.3,0,.3,0,0,0,0,0,0,.2v.5c0,0-.1,0-.2,0h-.2c-.4,0-.8,0-1.1.2-.3.2-.6.4-.9.8v4.9h-.5c-.1,0-.2,0-.2-.2v-6.3h.5c.1,0,.2,0,.2.2v.7c.1-.1.2-.2.4-.3.1-.1.3-.2.5-.3.2,0,.4-.2.5-.2.2,0,.4,0,.6,0Z" fill="#000100" stroke-width="0"/>
      <path d="m447.6,235.8c.1,0,.2,0,.2,0,0,0,0,0,0,.1v.4c-.3,0-.6.1-.9.1s-.5,0-.7,0c-.2,0-.3-.2-.5-.3-.1-.1-.2-.3-.2-.4,0-.2,0-.3,0-.5v-4.7h-.6c-.1,0-.2,0-.2-.2v-.4h.8v-1.8h.5c.1,0,.2,0,.2.2v1.6h1.5c.1,0,.2,0,.2.2v.4h-1.7v4.6c0,.1,0,.2,0,.3,0,0,0,.2.1.2,0,0,.2.1.3.2.1,0,.3,0,.5,0s.2,0,.3,0c0,0,.2,0,.2,0Z" fill="#000100" stroke-width="0"/>
      <path d="m450,230.5c.2-.2.5-.4.8-.6.4-.2.8-.3,1.3-.3s1.1.2,1.5.5c.4.4.6.9.6,1.7v4.4h-.5c-.1,0-.2,0-.2-.2v-4.2c0-.6-.1-1-.4-1.3-.3-.3-.6-.4-1.1-.4s-.5,0-.7,0c-.2,0-.4.1-.6.2-.2,0-.3.2-.4.3s-.2.2-.3.3v5.1h-.5c-.1,0-.2,0-.2-.2v-9.1h.5c.1,0,.2,0,.2.2v3.3Z" fill="#000100" stroke-width="0"/>
      <path d="m456.3,228.6c-.2,0-.3,0-.4-.1,0,0-.1-.2-.1-.4s0-.3.1-.4c0,0,.2-.1.4-.1s.3,0,.4.1.1.2.1.4,0,.3-.1.4-.2.1-.4.1Zm-.4,1.3h.5c.1,0,.2,0,.2.2v6.3h-.5c-.1,0-.2,0-.2-.2v-6.3Z" fill="#000100" stroke-width="0"/>
      <path d="m459.2,230.6c0,0,.2-.2.3-.3.1-.1.3-.2.5-.3.2,0,.4-.2.6-.2.2,0,.5,0,.7,0,.6,0,1.1.2,1.5.5.4.4.6.9.6,1.7v4.4h-.5c-.1,0-.2,0-.2-.2v-4.2c0-.6-.1-1-.4-1.3-.3-.3-.6-.4-1.1-.4s-.5,0-.7,0c-.2,0-.4.1-.6.2-.2,0-.3.2-.4.3-.1.1-.2.2-.3.3v5.1h-.5c-.1,0-.2,0-.2-.2v-6.3h.5c.1,0,.2,0,.2.2v.5Z" fill="#000100" stroke-width="0"/>
      <path d="m467.8,236.5c-.5,0-.9,0-1.3-.2s-.6-.3-.9-.6c-.2-.3-.4-.6-.5-1-.1-.4-.2-1-.2-1.6s0-1.2.2-1.6c.1-.4.3-.8.5-1.1.2-.3.5-.5.8-.6.3-.1.7-.2,1.1-.2s.9,0,1.2.2c.3.1.5.3.7.6.2.2.3.5.4.9,0,.3,0,.7,0,1.1s0,.3,0,.5c0,.2,0,.3,0,.4h-4.1c0,.4,0,.8.1,1.1,0,.3.2.6.3.8.2.2.4.3.7.4.3,0,.6.1,1.1.1s.8,0,1,0c.3,0,.4,0,.5,0s.1,0,.2,0c0,0,0,0,0,.1v.3c-.2,0-.5.1-.8.2-.3,0-.7,0-1.1,0Zm-.2-6.2c-.4,0-.7,0-.9.2s-.4.3-.6.5c-.1.2-.2.5-.3.8,0,.3,0,.6-.1,1h3.5c0,0,0-.1,0-.2v-.2c0-.3,0-.7,0-.9,0-.3-.1-.5-.2-.7-.1-.2-.3-.3-.5-.4-.2,0-.5-.1-.8-.1Z" fill="#000100" stroke-width="0"/>
      <path d="m471.3,236.3c-.1,0-.2-.1-.2-.2v-.4c.2,0,.5,0,.8.1.3,0,.7,0,1,0s.7,0,.9,0c.2,0,.4-.1.5-.2.1-.1.2-.2.3-.4,0-.1,0-.3,0-.5s0-.4-.1-.6c0-.1-.2-.3-.3-.4-.1,0-.3-.2-.6-.2-.2,0-.5-.1-.8-.2-.3,0-.5-.1-.7-.2-.2,0-.4-.2-.6-.3-.2-.1-.3-.3-.4-.5,0-.2-.1-.5-.1-.8,0-.6.2-1,.5-1.3s.9-.5,1.7-.5.2,0,.3,0c.2,0,.3,0,.5,0,.2,0,.3,0,.5,0,.2,0,.3,0,.4,0,.1,0,.2.1.2.2v.4c-.3,0-.6,0-.9-.1-.3,0-.6,0-.9,0s-.6,0-.8,0c-.2,0-.4.1-.5.2-.1,0-.2.2-.3.3,0,.1,0,.3,0,.5s0,.4,0,.5c0,.1.1.2.3.3.1,0,.3.2.5.2.2,0,.5.1.7.2.3,0,.6.1.8.2.3,0,.5.2.7.3.2.1.3.3.4.5.1.2.2.5.2.9,0,.7-.2,1.2-.6,1.4-.4.3-1,.4-1.7.4s-.2,0-.4,0c-.2,0-.4,0-.5,0-.2,0-.4,0-.5,0s-.3,0-.4-.1Z" fill="#000100" stroke-width="0"/>
      <path d="m476.9,236.3c-.1,0-.2-.1-.2-.2v-.4c.2,0,.5,0,.8.1.3,0,.7,0,1,0s.7,0,.9,0c.2,0,.4-.1.5-.2.1-.1.2-.2.3-.4,0-.1,0-.3,0-.5s0-.4-.1-.6c0-.1-.2-.3-.3-.4-.1,0-.3-.2-.6-.2-.2,0-.5-.1-.8-.2-.3,0-.5-.1-.7-.2-.2,0-.4-.2-.6-.3-.2-.1-.3-.3-.4-.5,0-.2-.1-.5-.1-.8,0-.6.2-1,.5-1.3.4-.3.9-.5,1.7-.5s.2,0,.3,0c.2,0,.3,0,.5,0,.2,0,.3,0,.5,0,.2,0,.3,0,.4,0,.1,0,.2.1.2.2v.4c-.3,0-.6,0-.9-.1-.3,0-.6,0-.9,0s-.6,0-.8,0c-.2,0-.4.1-.5.2-.1,0-.2.2-.3.3,0,.1,0,.3,0,.5s0,.4,0,.5c0,.1.1.2.3.3.1,0,.3.2.5.2.2,0,.5.1.7.2.3,0,.6.1.8.2.3,0,.5.2.7.3.2.1.3.3.4.5.1.2.2.5.2.9,0,.7-.2,1.2-.6,1.4-.4.3-1,.4-1.7.4s-.2,0-.4,0c-.2,0-.4,0-.5,0-.2,0-.4,0-.5,0-.2,0-.3,0-.4-.1Z" fill="#000100" stroke-width="0"/>
    </g>
  </g>
  <g id="Layer_7" class="text" data-name="Layer 7">
    <path d="m26.5,16.2c-6.8,2.6-13.8,4.5-21.1,6-.6,3.3-.9,7-1.1,11,0,2.2.8,3.3,2.5,3.4,1.7.1,4.4-.5,7.9-1.7,3.3-1.1,5.7-2.2,7.1-3.3.2-.2.5-.3.8-.3s.6.1.9.4c.3.3.4.5.4.8s-.1.5-.4.7c-1.8,1.2-4.2,2.5-7.3,3.7-3.7,1.4-6.8,2.2-9.4,2.2-3.2,0-4.8-1.9-4.9-5.9,0-2.3.3-5.8.9-10.5-.5.2-1,.3-1.5.3-.8,0-1.2-.4-1.2-1.1s.5-1.5,1.4-1.7c.4,0,.9-.2,1.7-.4.8-4.5,1.7-8.3,2.6-11.4l-1.6.6c-.7,0-1.1-.5-1.1-1.4s.2-.8.7-1c0,0,1-.4,2.9-1.1.5-1.7,1.1-3.3,1.7-4.8.2-.4.5-.7,1-.7.8,0,1.3.4,1.3,1.2s-.2.8-.6,1.7c-.4,1-.7,1.7-.7,1.9,4.6-1.3,9.5-2.2,14.8-2.6.9,0,1.4.4,1.4,1.3s-.4,1.1-1.1,1.1c-1.7,0-4.1.3-7.3.9-3.2.6-6,1.3-8.6,2.1-1.3,4.2-2.2,8.2-2.8,12,8.6-1.9,15.2-3.8,19.8-5.6.1,0,.3,0,.4,0,.8,0,1.2.4,1.2,1.3s-.2.8-.7,1Z" fill="#000100" stroke-width="0"/>
  </g>
  <g id="Layer_8" class="text" data-name="Layer 8">
    <path d="m76,24.1c-3,4.3-6,7.5-9.1,9.8-1.2.9-2.3,1.3-3.1,1.3-1.5,0-2.5-1.1-2.7-3.2,0-.6-.1-1.3-.1-2.1,0-3.1.4-6.1,1.1-9,.2-.7,0-1-.8-1s-.8.1-1.2.4c-1.1.8-2.8,2.7-5,5.5-2.2,2.8-4,5.4-5.4,7.6,0,1.5-.4,2.3-1.1,2.5-.7.2-1.2,0-1.7-.6-.1-.2-.2-.4-.2-.7,0-.6.2-1.1.6-1.7.3-6.6.2-10.8-.1-12.6-.1-.4-.4-.6-.8-.6s-.8.2-1.1.5c-3,2.8-6.1,7.5-9.2,14-.2.7-.3,1.1-.4,1.3-.2.6-.4.9-.8,1-.5.2-1.1,0-1.6-.7-.2-.3-.3-.6-.3-.9s.2-.9.5-1.4c.3-.9.9-3.9,1.8-9-.5,0-.8-.3-.8-.8s.3-.7.9-1.7c.2-.4.3-.7.4-.9,0-.3.2-.8.5-1.4.4-.7,1.1-.8,2-.4.4.2.7.5.7,1s-.3,1.3-.9,2c-.5,1.4-1,3.8-1.5,7,2.6-4.9,5-8.5,7.4-10.7,1.1-1,2.2-1.5,3.3-1.5,1.6,0,2.6,1.8,2.8,5.5,0,1,0,3.4-.3,7.2,3.1-4.9,6.1-8.6,9-11.1,1.2-1,2.4-1.6,3.6-1.6s2.4.8,2.4,2.3,0,.5-.1.8c-.8,3.3-1.2,6.6-1.2,9.9s.4,2.6,1.1,2.6.8-.2,1.4-.6c2.9-2,5.8-5,8.6-9.1.2-.3.6-.5,1-.5.6,0,1,.3,1,.9s0,.4-.2.7Z" fill="#000100" stroke-width="0"/>
  </g>
  <g id="Layer_9" class="text" data-name="Layer 9">
    <path d="m107.3,24.1c-1.3,1.8-3.4,3.7-6.1,5.7-2.7,2-5.3,3.6-7.9,4.6-3.5,1.4-6.8,2.1-10,2-3.2,0-5.2-.7-6.2-2-1.6,5.7-2.7,11.5-3,17.4.5,1.2.7,2.1.6,2.6-.2,1.1-.8,1.8-1.7,2.1-.9.2-1.4-.5-1.4-2.3,0-3,.7-7.9,2.1-14.8,1.2-5.7,2.4-10.6,3.6-14.7-.4-.2-.6-.5-.6-.9s.3-.7.9-1.7c.2-.4.4-.7.5-.9.4-1.8.8-2.9,1.3-3.4.5-.5.9-.6,1.4-.3.7.3,1,.7.9,1.1,0,.6-.4,1.3-1.1,2.3-.2.5-.5,1.4-.9,2.7,1.6-1.7,3.4-3.3,5.6-4.5,2.5-1.4,4.8-2.2,6.9-2.2s3.1.5,4.1,1.5c.9,1,1.4,2.4,1.4,4s-.3,2.9-1,4.5c-1.1,2.7-2.8,4.7-5,6,2.1-.6,4.7-1.9,7.7-4,3-2.1,5.1-4,6.2-5.7.2-.3.5-.5.8-.5s.5.1.8.4c.3.2.4.5.4.8s0,.3-.2.4Zm-12.8,1.8c.5-1.1.7-2.1.7-3.1,0-2.5-1.2-3.7-3.6-3.7s-4.4,1-7.1,2.9c-2.8,1.9-4.6,3.8-5.6,5.7-.2.4-.6,1.7-1.1,4.1,0,.7.6,1.3,1.8,1.8,1.2.5,2.6.7,4.1.7s2.2-.2,3.1-.5c3.1-.9,5.7-3.6,7.6-7.9Z" fill="#000100" stroke-width="0"/>
  </g>
  <g id="Layer_10" class="text" data-name="Layer 10">
    <path d="m132,24.1c-1.8,2.2-4.4,3.5-7.7,3.9-.7,0-1.4,0-2.2-.2-.2,1.3-.8,2.7-1.7,4.1-1,1.6-2.2,2.9-3.7,3.9-1.4,1-2.9,1.5-4.5,1.5-2.7,0-4.4-1.3-5.3-4-.3-1.1-.5-2.2-.5-3.3,0-4,1.7-7.5,5-10.5.2-.1.6-.3,1.1-.5-.2-.6-.3-1.2-.3-1.8,0-1.6.7-2.8,2-3.5.4-.2.9-.4,1.5-.4,1.6,0,3.1.7,4.3,2.2,1.8,2.2,2.7,4.9,2.7,7.9s0,1.4-.1,2.2c.4.3.9.4,1.5.3,2.5-.3,4.5-1.3,6.1-3,.3-.3.7-.5,1.1-.5.7,0,1,.3,1,.8s-.1.5-.3.7Zm-12.1,3.2c-3-1.4-5.3-3.6-6.7-6.5-1.3,1.2-2.4,2.8-3.2,4.5-.8,1.8-1.2,3.5-1.2,5.2s.1,1.5.3,2.2c.5,1.6,1.6,2.5,3.3,2.5s2.2-.4,3.2-1.2c2.2-1.5,3.6-3.8,4.3-6.7Zm.4-2.4c0-.5.1-1.1.1-1.6,0-2.2-.7-4.3-2.2-6.3-.6-.9-1.4-1.4-2.2-1.4-1.2,0-1.6.9-1.2,2.7.6,2.8,2.5,5,5.5,6.5Z" fill="#000100" stroke-width="0"/>
  </g>
  <g id="Layer_11" class="text" data-name="Layer 11">
    <path d="m171.8,24.1c-.9,1.7-2.5,2.9-4.5,3.8-.9.4-1.9.6-2.9.6s-1.3,0-1.9-.3c-.8-.3-1.6-.7-2.3-1.2-1.4,4-3.6,6.7-6.6,8-.7.3-1.5.5-2.3.5-1.6,0-2.9-.6-3.8-1.8-.9-1.2-1.3-2.8-1.3-4.6-2,3.2-4.1,5.6-6.5,7.3-1.2.9-2.3,1.3-3.3,1.3-1.9,0-3-1.2-3.4-3.5-.1-.7-.2-1.5-.2-2.4,0-2.5.4-4.9,1.2-7.2-.4-.2-.7-.5-.7-.9s.3-.7.9-1.7c.2-.4.3-.7.4-.9.2-.4.5-1.1.9-1.9.3-.5.8-.8,1.3-.8s.6,0,.9.2c.3.2.5.4.6.8.1.4.2.7.1.9,0,0-.6.9-1.7,2.7-1,2.3-1.5,5.2-1.5,8.7s.6,3.6,1.8,3.6,1.1-.2,1.7-.6c1.4-1,2.9-2.6,4.5-4.7,1.3-1.8,2.2-3.4,2.9-4.8,0-1.6.3-2.7.6-3.3.2-.5.5-.9.9-1.2.4-.3.9-.4,1.3-.3.8.2,1.3.6,1.3,1.4s-.5,2.1-1.4,3.7c-.1.5-.2,1.1-.2,1.9,0,2.4.3,4,1,5,.5.7,1.2,1,2,1s.7,0,1.1-.2c1.3-.5,2.6-1.6,3.8-3.3,1-1.5,1.8-3.1,2.2-4.7-1.1-1.5-1.7-3.3-1.7-5.5s.6-3,1.8-3,1.3.5,1.8,1.5c.5,1.1.7,2.6.7,4.3s0,1.4-.2,2c.2.8.9,1.4,2.2,1.8,1,.3,2,.3,3,0,1.6-.5,2.9-1.6,3.9-3.1.2-.4.6-.6,1-.6.7,0,1,.3,1,1s0,.4-.2.6Z" fill="#000100" stroke-width="0"/>
  </g>
  <g id="Layer_12" class="text" data-name="Layer 12">
    <path d="m193.8,24.1c-6.1,8.6-11.4,12.9-15.8,12.9s-3.7-.8-4.8-2.5c-1-1.5-1.5-3.3-1.5-5.4s.8-5.3,2.3-8.1c1.4-2.6,3.1-4.6,5.1-6.1,1-.8,2.2-1.2,3.4-1.2s2,.3,2.6,1c.6.7.9,1.6.9,2.8s-.2,1.7-.5,2.7c-1.6,4.5-5.4,7.4-11.4,8.7,0,.2,0,.5-.1.9-.1,1.2.3,2.4,1.1,3.5.9,1.1,1.9,1.6,3.1,1.6,2.1,0,4.6-1.5,7.7-4.5,2.2-2.2,4.2-4.5,6-7.2.2-.3.5-.5.9-.5.7,0,1.1.3,1.1,1s0,.4-.2.6Zm-10.3-4.6c.3-.8.3-1.5.2-2.3-.2-.9-.7-1.4-1.5-1.4s-1.1.2-1.7.6c-1.2.8-2.4,2.2-3.6,4-1.4,2.2-2.3,4.3-2.6,6.3,2.7-.7,4.7-1.6,6-2.6,1.4-1.1,2.5-2.6,3.2-4.7Z" fill="#000100" stroke-width="0"/>
  </g>
  <g id="Layer_13" class="text" data-name="Layer 13">
    <path d="m210.4,17.9c-.2.5-.4.7-.8.7s-.4-.1-.8-.4c-.4-.3-.8-.4-1.2-.4-2.1,0-4.1,2.3-6,7-1.3,3.2-2.3,6.4-2.8,9.5.1.7.2,1.2,0,1.5,0,.4-.2.8-.6,1.4-.1.2-.3.3-.6.3-.7,0-1.2-.3-1.3-.9-.1-.8-.1-1.5,0-2-.3-2.2-.4-5.5-.3-9.9-.7-.3-1.1-.6-1.1-1.1s0-.3.2-.5c.3-.4.6-1.1,1-1.9,0-.4.2-1,.4-1.8.3-.5.7-.8,1.2-.8.9,0,1.3.5,1.2,1.6,0,.3-.3.8-.6,1.4-.4,2.5-.5,5-.5,7.4.9-3.7,2.2-6.8,3.9-9.3,1.9-2.8,3.8-4.2,5.8-4.2s1.5.2,2.3.7c.6.4.8,1,.5,1.8Z" fill="#000100" stroke-width="0"/>
  </g>
  <g id="Layer_14" class="text" data-name="Layer 14">
    <path d="m231.9,24.1c-1.1,2-2.5,4-4.3,6.2-2.1,2.6-3.9,4.4-5.6,5.5-1.2.8-2.3,1.2-3.2,1.2-2.1,0-3.1-1.6-3.3-4.7-.1-2.8.4-5.4,1.5-7.7-.6-.2-.6-.7,0-1.6.3-.4.6-1,1-1.9.1-.4.3-.9.7-1.3.3-.3.7-.5,1.1-.5.9,0,1.4.4,1.4,1.3s0,.4-.1.6c0,.3-.5,1-1.2,2-.6,1.2-1.1,2.7-1.5,4.4-.4,1.8-.5,3.2-.5,4.3.1,1.6.6,2.5,1.4,2.5s1.1-.3,1.8-.8c1.2-.9,2.8-2.5,4.7-4.7,1.9-2.3,3.4-4.3,4.4-6,.2-.4.5-.6.9-.6.7,0,1.1.3,1.1,1s0,.4-.2.6Zm-6.9-12.8c0,.3-.3.6-.6,1.1-.3.5-.5.9-.6,1.1-.4.9-.9,1.4-1.5,1.4s-.8-.2-1.2-.6c-.3-.4-.5-.8-.5-1.2,0-1,.5-2.1,1.5-3.1.4-.4.8-.6,1.2-.6s.9.2,1.3.6c.4.4.5.8.4,1.2Z" fill="#000100" stroke-width="0"/>
  </g>
  <g id="Layer_15" class="text" data-name="Layer 15">
    <path d="m262.1,24.1c-.9,1.6-2.1,3.4-3.6,5.4-1.5,2-2.9,3.5-4,4.5-1.1,1-2.3,1.5-3.4,1.5s-2.4-.8-3.1-2.4c-.3-.8-.5-2.1-.5-3.9s.2-4.2.7-6.4c.1-.8.2-1.4.2-1.9,0-.9-.3-1.4-.8-1.4-1.4,0-3.7,2.2-6.8,6.5-2.3,3.3-4,6.1-5.1,8.4-.3.7-1,.9-1.9.7-.5-.2-.8-.6-.8-1.3,0-3.7.3-6.8.8-9.2-.5-.2-.8-.5-.8-.9s.3-.7.9-1.7c.2-.4.3-.7.4-.9,0-.3.3-.8.6-1.5.6-.7,1.3-.8,2.2-.3.4.3.6.7.5,1.3-.1.3-.3.7-.6,1.1-.5.6-.7,1-.8,1-.6,2.8-1,5.5-1.1,8.2,3.2-6,6.5-10.3,9.9-12.8,1.2-.9,2.3-1.3,3.2-1.3s2.1.7,2.4,2c.2,1,.2,2.5-.2,4.5-.2,1.2-.5,2.9-.8,5-.1,1.4,0,2.7.4,3.7.3.7.7,1,1.4,1s1-.2,1.6-.7c1-.8,2.2-2.2,3.7-4.1,1.4-1.9,2.6-3.6,3.5-5.2.2-.4.5-.6.9-.6.7,0,1,.4,1,1.1s0,.3-.1.5Z" fill="#000100" stroke-width="0"/>
  </g>
  <g id="Layer_16" class="text" data-name="Layer 16">
    <path d="m292.8,24.1c-2,2.9-5.6,6.5-10.7,10.9,0,4.3-.3,7.5-.8,9.3-.7,2.5-2,4.7-3.9,6.8-1.9,2.1-4,3.6-6.4,4.5-1.5.6-3,.9-4.3.9-2,0-3.4-.7-4.3-2.1-.4-.6-.6-1.4-.6-2.3,0-2.1,1.1-4.1,3.3-5.9,3.5-2.7,8.4-6.7,14.7-11.9-.1-4.1-.3-7.8-.7-11.2-1,2.2-2.5,4.5-4.4,6.8-2.1,2.6-4.2,4.5-6.2,5.8-1.5.9-2.9,1.4-4,1.4-2.6,0-3.8-1.8-3.8-5.3s0-1.2.1-1.8c.4-2.9,1.7-6,4.1-9.1,2.2-2.9,4.4-5,6.7-6.4.7-.4,1.5-.6,2.4-.6s1.2.1,1.5.4c1,.8,1.6,1.8,1.8,2.9,0,.5,0,.9-.4,1.2-.4.4-.7.5-1.1.5s-.7-.2-.8-.6c-.1-.4-.3-.9-.6-1.4-.5-.6-1.2-.7-2.1-.3-2.1,1.4-4.1,3.3-5.9,5.9-1.9,2.7-3,5.3-3.2,7.7,0,.5-.1,1-.1,1.4,0,2,.6,2.9,1.9,2.9s1.4-.3,2.4-.8c2.4-1.4,4.6-3.7,6.9-6.7,1.8-2.5,3.3-5.1,4.4-7.8.1-1.8.9-2.7,2.2-2.6.8,0,1.2.5,1.2,1.4s-.3,1.1-.8,1.8c.1.7.4,4.8.8,12.5,3.7-2.9,6.7-6,9.1-9.4.2-.3.4-.4.8-.4.8,0,1.2.3,1.2,1s0,.3-.2.5Zm-13,12.8c-2.5,2.2-6.9,5.8-13.3,10.8-1.6,1.3-2.5,2.7-2.5,4.2s.2,1.3.6,1.8c.4.5,1.1.8,2.1.8s2.1-.3,3.3-.8c4.6-2,7.6-5.3,8.8-9.8.5-1.8.8-4.1.9-7Z" fill="#000100" stroke-width="0"/>
  </g>
  <g id="Layer_17" class="text" data-name="Layer 17">
    <path d="m340,14.3c-2.1,2.4-5.2,4.7-9.4,6.9-4.2,2.3-8.3,3.9-12.5,5-1.1,6.1-1.8,11.2-1.9,15.3,0,1-.4,1.5-1.2,1.5s-1.2-.4-1.2-1.2c0-2.3.6-7.3,1.8-14.9-.7.2-1.3.3-1.9.2-.9-.1-1.3-.6-1.3-1.4s.4-1.1,1.1-1.1,1.7-.1,2.6-.4c.4-2.2,1.3-8.2,2.7-18,.1-.6.5-1,1.3-1s1.3.4,1.2,1.2c-.5,3.8-1.4,9.5-2.6,17.3,3.5-.9,7.2-2.4,11.1-4.6,3.9-2.1,6.7-4.2,8.5-6.3,1-1.1,1.5-2.4,1.5-3.7s-.5-2.5-1.6-3.5c-1.2-1.1-2.9-1.8-5.2-2.1-1.2-.2-2.5-.3-3.9-.3-4.3,0-8.9.8-13.6,2.5-.2,0-.4.1-.6.1-.8,0-1.2-.4-1.2-1.3s.3-1,.9-1.2c4-1.6,8.9-2.5,14.7-2.5s2.7,0,3.7.2c3.2.5,5.6,1.4,7.3,2.8,1.5,1.3,2.3,2.9,2.3,4.7s-.8,3.8-2.5,5.6Z" fill="#000100" stroke-width="0"/>
  </g>
  <g id="Layer_18" class="text" data-name="Layer 18">
    <path d="m362.9,17.9c-.2.5-.4.7-.8.7s-.4-.1-.8-.4c-.4-.3-.8-.4-1.2-.4-2.1,0-4.1,2.3-6,7-1.3,3.2-2.3,6.4-2.8,9.5.1.7.2,1.2,0,1.5,0,.4-.2.8-.6,1.4-.1.2-.3.3-.6.3-.7,0-1.2-.3-1.3-.9-.1-.8-.1-1.5,0-2-.3-2.2-.4-5.5-.3-9.9-.7-.3-1.1-.6-1.1-1.1s0-.3.2-.5c.3-.4.6-1.1,1-1.9,0-.4.2-1,.4-1.8.3-.5.7-.8,1.2-.8.9,0,1.3.5,1.2,1.6,0,.3-.3.8-.6,1.4-.4,2.5-.5,5-.5,7.4.9-3.7,2.2-6.8,3.9-9.3,1.9-2.8,3.8-4.2,5.8-4.2s1.5.2,2.3.7c.6.4.8,1,.5,1.8Z" fill="#000100" stroke-width="0"/>
  </g>
  <g id="Layer_19" class="text" data-name="Layer 19">
    <path d="m392.6,24.1c-1.8,2.2-4.4,3.5-7.7,3.9-.7,0-1.4,0-2.2-.2-.2,1.3-.8,2.7-1.7,4.1-1,1.6-2.2,2.9-3.7,3.9-1.4,1-2.9,1.5-4.5,1.5-2.7,0-4.4-1.3-5.3-4-.3-1.1-.5-2.2-.5-3.3,0-4,1.7-7.5,5-10.5.2-.1.6-.3,1.1-.5-.2-.6-.3-1.2-.3-1.8,0-1.6.7-2.8,2-3.5.4-.2.9-.4,1.5-.4,1.6,0,3.1.7,4.3,2.2,1.8,2.2,2.7,4.9,2.7,7.9s0,1.4-.1,2.2c.4.3.9.4,1.5.3,2.5-.3,4.5-1.3,6.1-3,.3-.3.7-.5,1.1-.5.7,0,1,.3,1,.8s-.1.5-.3.7Zm-12.1,3.2c-3-1.4-5.3-3.6-6.7-6.5-1.3,1.2-2.4,2.8-3.2,4.5-.8,1.8-1.2,3.5-1.2,5.2s.1,1.5.3,2.2c.5,1.6,1.6,2.5,3.3,2.5s2.2-.4,3.2-1.2c2.2-1.5,3.6-3.8,4.3-6.7Zm.4-2.4c0-.5.1-1.1.1-1.6,0-2.2-.7-4.3-2.2-6.3-.6-.9-1.4-1.4-2.2-1.4-1.2,0-1.6.9-1.2,2.7.6,2.8,2.5,5,5.5,6.5Z" fill="#000100" stroke-width="0"/>
  </g>
  <g id="Layer_20" class="text" data-name="Layer 20">
    <path d="m423.5,24.1c-2,2.9-5.6,6.5-10.7,10.9,0,4.3-.3,7.5-.8,9.3-.7,2.5-2,4.7-3.9,6.8-1.9,2.1-4,3.6-6.4,4.5-1.5.6-3,.9-4.3.9-2,0-3.4-.7-4.3-2.1-.4-.6-.6-1.4-.6-2.3,0-2.1,1.1-4.1,3.3-5.9,3.5-2.7,8.4-6.7,14.7-11.9-.1-4.1-.3-7.8-.7-11.2-1,2.2-2.5,4.5-4.4,6.8-2.1,2.6-4.2,4.5-6.2,5.8-1.5.9-2.9,1.4-4,1.4-2.6,0-3.8-1.8-3.8-5.3s0-1.2.1-1.8c.4-2.9,1.7-6,4.1-9.1,2.2-2.9,4.4-5,6.7-6.4.7-.4,1.5-.6,2.4-.6s1.2.1,1.5.4c1,.8,1.6,1.8,1.8,2.9,0,.5,0,.9-.4,1.2-.4.4-.7.5-1.1.5s-.7-.2-.8-.6c-.1-.4-.3-.9-.6-1.4-.5-.6-1.2-.7-2.1-.3-2.1,1.4-4.1,3.3-5.9,5.9-1.9,2.7-3,5.3-3.2,7.7,0,.5-.1,1-.1,1.4,0,2,.6,2.9,1.9,2.9s1.4-.3,2.4-.8c2.4-1.4,4.6-3.7,6.9-6.7,1.8-2.5,3.3-5.1,4.4-7.8.1-1.8.9-2.7,2.2-2.6.8,0,1.2.5,1.2,1.4s-.3,1.1-.8,1.8c.1.7.4,4.8.8,12.5,3.7-2.9,6.7-6,9.1-9.4.2-.3.4-.4.8-.4.8,0,1.2.3,1.2,1s0,.3-.2.5Zm-13,12.8c-2.5,2.2-6.9,5.8-13.3,10.8-1.6,1.3-2.5,2.7-2.5,4.2s.2,1.3.6,1.8c.4.5,1.1.8,2.1.8s2.1-.3,3.3-.8c4.6-2,7.6-5.3,8.8-9.8.5-1.8.8-4.1.9-7Z" fill="#000100" stroke-width="0"/>
  </g>
  <g id="Layer_21" class="text" data-name="Layer 21">
    <path d="m439.8,17.9c-.2.5-.4.7-.8.7s-.4-.1-.8-.4c-.4-.3-.8-.4-1.2-.4-2.1,0-4.1,2.3-6,7-1.3,3.2-2.3,6.4-2.8,9.5.1.7.2,1.2,0,1.5,0,.4-.2.8-.6,1.4-.1.2-.3.3-.6.3-.7,0-1.2-.3-1.3-.9-.1-.8-.1-1.5,0-2-.3-2.2-.4-5.5-.3-9.9-.7-.3-1.1-.6-1.1-1.1s0-.3.2-.5c.3-.4.6-1.1,1-1.9,0-.4.2-1,.4-1.8.3-.5.7-.8,1.2-.8.9,0,1.3.5,1.2,1.6,0,.3-.3.8-.6,1.4-.4,2.5-.5,5-.5,7.4.9-3.7,2.2-6.8,3.9-9.3,1.9-2.8,3.8-4.2,5.8-4.2s1.5.2,2.3.7c.6.4.8,1,.5,1.8Z" fill="#000100" stroke-width="0"/>
  </g>
  <g id="Layer_22" class="text" data-name="Layer 22">
    <path d="m467.1,24.1c-6.1,8.6-11.4,12.9-15.8,12.9s-3.7-.8-4.8-2.5c-1-1.5-1.5-3.3-1.5-5.4s.8-5.3,2.3-8.1c1.4-2.6,3.1-4.6,5.1-6.1,1-.8,2.2-1.2,3.4-1.2s2,.3,2.6,1c.6.7.9,1.6.9,2.8s-.2,1.7-.5,2.7c-1.6,4.5-5.4,7.4-11.4,8.7,0,.2,0,.5-.1.9-.1,1.2.3,2.4,1.1,3.5.9,1.1,1.9,1.6,3.1,1.6,2.1,0,4.6-1.5,7.7-4.5,2.2-2.2,4.2-4.5,6-7.2.2-.3.5-.5.9-.5.7,0,1.1.3,1.1,1s0,.4-.2.6Zm-10.3-4.6c.3-.8.3-1.5.2-2.3-.2-.9-.7-1.4-1.5-1.4s-1.1.2-1.7.6c-1.2.8-2.4,2.2-3.6,4-1.4,2.2-2.3,4.3-2.6,6.3,2.7-.7,4.7-1.6,6-2.6,1.4-1.1,2.5-2.6,3.2-4.7Z" fill="#000100" stroke-width="0"/>
  </g>
  <g id="Layer_23" class="text" data-name="Layer 23">
    <path d="m483.2,17.6c.1.7-.2,1.3-1,1.6-.8.3-1.3,0-1.6-.8-.2-.6-1-1-2.6-1-2.5,0-4.6.7-6.4,2-.8.6-1.2,1.2-1.2,1.9,0,1,1.1,1.9,3.2,2.7,1.6.5,3.9,1.4,6.8,2.6,1.9,1.1,2.9,2.4,2.9,3.9s-.4,1.8-1.1,2.7c-1.2,1.5-3,2.9-5.4,4.1-2.4,1.2-4.6,1.8-6.6,1.8s-3.1-1-3.2-2.9c-.1-1.3.2-2.7,1-4,.3-.5.7-.8,1.2-.8s.6.1.8.4c.2.3.1.6-.1,1.1-.3.6-.4,1.5-.4,2.7s.5,1.3,1.4,1.3.6,0,1-.1c1.9-.4,3.7-1.1,5.3-2.1,1.6-1,2.8-2,3.4-3.1.2-.3.3-.6.3-1,0-.8-.5-1.5-1.4-2-1.7-.8-4.1-1.8-7.3-2.8-2.9-1-4.4-2.4-4.4-4.2s.8-2.6,2.5-3.8c2.4-1.7,5.1-2.6,8.2-2.6s2.1.2,3,.5c1.2.4,1.9,1.1,2,1.9Z" fill="#000100" stroke-width="0"/>
  </g>
  <g id="Layer_24" class="text" data-name="Layer 24">
    <path d="m505.9,17.6c.1.7-.2,1.3-1,1.6-.8.3-1.3,0-1.6-.8-.2-.6-1-1-2.6-1-2.5,0-4.6.7-6.4,2-.8.6-1.2,1.2-1.2,1.9,0,1,1.1,1.9,3.2,2.7,1.6.5,3.9,1.4,6.8,2.6,1.9,1.1,2.9,2.4,2.9,3.9s-.4,1.8-1.1,2.7c-1.2,1.5-3,2.9-5.4,4.1-2.4,1.2-4.6,1.8-6.6,1.8s-3.1-1-3.2-2.9c-.1-1.3.2-2.7,1-4,.3-.5.7-.8,1.2-.8s.6.1.8.4c.2.3.1.6-.1,1.1-.3.6-.4,1.5-.4,2.7s.5,1.3,1.4,1.3.6,0,1-.1c1.9-.4,3.7-1.1,5.3-2.1,1.6-1,2.8-2,3.4-3.1.2-.3.3-.6.3-1,0-.8-.5-1.5-1.4-2-1.7-.8-4.1-1.8-7.3-2.8-2.9-1-4.4-2.4-4.4-4.2s.8-2.6,2.5-3.8c2.4-1.7,5.1-2.6,8.2-2.6s2.1.2,3,.5c1.2.4,1.9,1.1,2,1.9Z" fill="#000100" stroke-width="0"/>
  </g>
</svg>